<?xml version="1.0" standalone="no"?>
<!DOCTYPE svg PUBLIC "-//W3C//DTD SVG 20010904//EN"
 "http://www.w3.org/TR/2001/REC-SVG-20010904/DTD/svg10.dtd">
<svg version="1.0" xmlns="http://www.w3.org/2000/svg"
 width="5001.000000pt" height="4001.000000pt" viewBox="0 0 5001.000000 4001.000000"
 preserveAspectRatio="xMidYMid meet">

<g transform="translate(0.000000,4001.000000) scale(0.100000,-0.100000)"
fill="#000000" stroke="none">
<path d="M25690 30680 l0 -1050 285 0 285 0 0 770 0 770 785 0 785 0 0 -3535
0 -3535 -245 0 -245 0 0 2660 0 2660 -1045 0 -1045 0 0 590 0 590 -1355 0
-1355 0 0 -990 0 -990 285 0 285 0 0 710 0 710 785 0 785 0 0 -2970 0 -2970
-245 0 -245 0 0 2154 0 2154 -22 6 c-13 3 -611 6 -1330 6 l-1308 0 0 -2445 0
-2445 790 0 790 0 0 2040 0 2040 -285 0 -285 0 0 -1755 0 -1755 -220 0 -220 0
0 1875 0 1875 765 0 765 0 0 -2160 0 -2160 810 0 810 0 0 2665 0 2665 744 0
744 0 6 -22 c3 -13 6 -1212 6 -2665 l0 -2643 805 0 805 0 0 4100 0 4100 -1335
0 -1335 0 0 -1050z"/>
<path d="M7600 27630 l0 -260 6685 0 6685 0 0 260 0 260 -6685 0 -6685 0 0
-260z"/>
<path d="M28930 27630 l0 -260 6680 0 6680 0 0 260 0 260 -6680 0 -6680 0 0
-260z"/>
<path d="M25453 22963 c-29 -3 -43 -9 -43 -19 0 -11 -16 -14 -69 -14 -38 0
-83 -3 -100 -6 -17 -4 -31 -13 -31 -20 0 -9 -11 -14 -27 -14 -63 0 -103 -12
-103 -30 0 -13 -11 -20 -40 -25 -23 -4 -40 -12 -40 -20 0 -8 -17 -16 -40 -20
-23 -4 -40 -12 -40 -20 0 -8 -17 -16 -40 -20 -23 -4 -40 -12 -40 -20 0 -8 -17
-16 -40 -20 -25 -4 -40 -12 -40 -21 0 -8 -9 -14 -20 -14 -13 0 -20 -7 -20 -20
0 -13 -7 -20 -20 -20 -13 0 -20 -7 -20 -19 0 -13 -10 -21 -34 -25 -22 -4 -36
-13 -39 -26 -3 -12 -14 -20 -26 -20 -12 0 -21 -6 -21 -15 0 -8 -9 -15 -20 -15
-13 0 -20 -7 -20 -20 0 -13 -7 -20 -20 -20 -13 0 -20 -7 -20 -20 0 -13 -7 -20
-20 -20 -13 0 -20 -7 -20 -20 0 -13 -7 -20 -20 -20 -13 0 -20 -7 -20 -20 0
-12 -7 -20 -16 -20 -9 0 -18 -9 -21 -20 -3 -11 -12 -20 -19 -20 -8 0 -14 -9
-14 -21 0 -12 -8 -23 -20 -26 -13 -3 -22 -17 -26 -39 -4 -24 -12 -34 -25 -34
-12 0 -19 -7 -19 -20 0 -11 -6 -20 -14 -20 -9 0 -17 -15 -21 -40 -4 -23 -12
-40 -20 -40 -8 0 -16 -17 -20 -40 -4 -23 -12 -40 -20 -40 -8 0 -16 -17 -20
-40 -4 -22 -12 -40 -20 -40 -14 0 -25 -43 -25 -96 0 -27 -4 -34 -19 -34 -19 0
-31 -34 -31 -91 0 -18 -5 -29 -14 -29 -19 0 -26 -45 -26 -171 0 -90 -3 -109
-15 -109 -13 0 -15 -229 -15 -2000 0 -1771 2 -2000 15 -2000 12 0 15 -19 15
-109 0 -126 7 -171 26 -171 10 0 14 -16 14 -60 0 -57 1 -60 25 -60 21 0 25 -5
25 -29 0 -48 12 -91 25 -91 8 0 16 -18 20 -40 4 -23 12 -40 20 -40 7 0 15 -18
19 -45 5 -28 12 -45 21 -45 8 0 16 -16 20 -40 4 -23 12 -40 20 -40 7 0 16 -15
19 -34 4 -22 13 -36 26 -39 12 -3 20 -14 20 -26 0 -12 6 -21 15 -21 8 0 15 -9
15 -20 0 -13 7 -20 20 -20 13 0 20 -7 20 -20 0 -13 7 -20 19 -20 14 0 21 -10
25 -35 4 -22 13 -35 22 -35 9 0 18 -9 21 -20 3 -11 12 -20 20 -20 8 0 17 -9
20 -20 3 -13 17 -22 39 -26 24 -4 34 -12 34 -25 0 -12 7 -19 20 -19 13 0 20
-7 20 -20 0 -13 7 -20 20 -20 11 0 20 -7 20 -15 0 -9 9 -15 21 -15 12 0 23 -8
26 -20 3 -13 17 -22 39 -26 19 -3 34 -12 34 -19 0 -8 17 -16 40 -20 30 -5 40
-11 40 -26 0 -16 7 -19 40 -19 33 0 40 -3 40 -20 0 -17 7 -20 40 -20 33 0 40
-3 40 -20 0 -17 7 -20 40 -20 27 0 40 -4 40 -14 0 -13 48 -26 103 -26 16 0 27
-5 27 -14 0 -17 44 -26 131 -26 51 0 69 -3 69 -14 0 -21 91 -26 525 -26 434 0
525 5 525 26 0 11 18 14 69 14 87 0 131 9 131 26 0 9 11 14 29 14 48 0 91 12
91 25 0 8 18 16 40 20 25 4 40 12 40 21 0 10 12 14 40 14 33 0 40 3 40 19 0
15 10 21 40 26 25 4 40 12 40 21 0 8 9 14 20 14 13 0 20 7 20 19 0 15 10 21
40 26 22 4 40 12 40 20 0 7 17 15 39 19 27 4 40 12 44 26 3 11 12 20 20 20 8
0 17 9 20 20 3 12 14 20 26 20 12 0 21 6 21 15 0 8 9 15 20 15 13 0 20 7 20
20 0 13 7 20 20 20 13 0 20 7 20 20 0 13 7 20 20 20 13 0 20 7 20 20 0 13 7
20 20 20 13 0 20 7 20 20 0 11 7 20 15 20 9 0 15 9 15 21 0 12 8 23 20 26 13
3 22 17 26 39 4 24 12 34 25 34 14 0 19 7 19 25 0 15 6 25 15 25 8 0 17 14 21
35 4 25 11 35 25 35 15 0 19 7 19 40 0 33 3 40 20 40 17 0 20 7 20 45 0 38 3
45 20 45 17 0 20 7 20 40 0 27 4 40 14 40 14 0 26 42 26 91 0 18 5 29 14 29
17 0 26 44 26 131 0 51 3 69 14 69 19 0 26 87 26 346 l0 224 -80 0 c-61 0 -80
3 -80 14 0 14 -79 26 -181 26 -43 0 -59 4 -59 14 0 13 -78 26 -161 26 l-39 0
0 -285 c0 -237 -2 -285 -14 -285 -10 0 -16 -22 -21 -80 -5 -56 -11 -80 -20
-80 -8 0 -16 -17 -20 -40 -5 -30 -12 -40 -25 -40 -13 0 -20 -10 -25 -40 -4
-23 -12 -40 -20 -40 -8 0 -16 -17 -20 -40 -4 -25 -12 -40 -21 -40 -8 0 -14 -9
-14 -21 0 -12 -8 -23 -20 -26 -13 -3 -22 -17 -26 -39 -4 -24 -12 -34 -25 -34
-14 0 -19 -7 -19 -25 0 -18 -5 -25 -20 -25 -13 0 -20 -7 -20 -20 0 -13 -7 -20
-20 -20 -13 0 -20 -7 -20 -20 0 -13 -7 -20 -20 -20 -13 0 -20 -7 -20 -19 0
-13 -10 -21 -34 -25 -22 -4 -36 -13 -39 -26 -3 -12 -14 -20 -26 -20 -12 0 -21
-6 -21 -14 0 -9 -15 -17 -40 -21 -23 -4 -40 -12 -40 -20 0 -8 -17 -16 -40 -20
-25 -4 -40 -12 -40 -21 0 -9 -11 -14 -29 -14 -48 0 -91 -12 -91 -25 0 -9 -34
-15 -120 -20 -92 -6 -120 -10 -120 -21 0 -12 -51 -14 -305 -14 -254 0 -305 2
-305 14 0 11 -28 15 -120 21 -86 5 -120 11 -120 20 0 13 -43 25 -91 25 -22 0
-29 5 -29 20 0 17 -7 20 -40 20 -33 0 -40 3 -40 20 0 13 -7 20 -20 20 -11 0
-20 6 -20 14 0 9 -17 16 -45 20 -36 6 -45 11 -45 27 0 12 -7 19 -20 19 -13 0
-20 7 -20 20 0 13 -7 20 -20 20 -11 0 -20 7 -20 15 0 9 -9 15 -21 15 -12 0
-23 8 -26 19 -3 11 -13 21 -24 24 -13 3 -19 14 -19 31 0 16 -6 26 -15 26 -8 0
-15 9 -15 20 0 13 -7 20 -20 20 -13 0 -20 7 -20 20 0 13 -7 20 -19 20 -15 0
-21 10 -26 40 -4 23 -12 40 -20 40 -8 0 -16 17 -20 40 -4 23 -12 40 -20 40 -8
0 -16 17 -20 40 -4 25 -12 40 -21 40 -9 0 -14 11 -14 29 0 48 -12 91 -25 91
-8 0 -14 43 -18 152 -9 197 -9 3888 0 4046 4 86 10 122 18 122 13 0 25 43 25
91 0 18 5 29 14 29 9 0 17 15 21 40 4 23 12 40 20 40 8 0 16 17 20 40 5 30 11
40 26 40 14 0 19 7 19 30 0 20 5 30 15 30 8 0 17 14 21 35 4 25 11 35 25 35
12 0 19 7 19 20 0 13 7 20 20 20 13 0 20 7 20 19 0 10 9 21 20 24 11 3 20 12
20 21 0 9 8 16 20 16 13 0 20 7 20 20 0 13 7 20 20 20 13 0 20 7 20 19 0 13
10 21 34 25 22 4 36 13 39 26 3 14 14 20 31 20 16 0 26 6 26 14 0 9 15 17 40
21 23 4 40 12 40 20 0 8 17 16 40 20 25 4 40 12 40 21 0 9 11 14 29 14 48 0
91 12 91 25 0 15 208 25 505 25 297 0 505 -10 505 -25 0 -15 45 -25 111 -25
36 0 49 -4 49 -14 0 -9 15 -17 40 -21 30 -5 40 -11 40 -26 0 -16 7 -19 40 -19
33 0 40 -3 40 -20 0 -13 7 -20 20 -20 12 0 20 -7 20 -16 0 -9 9 -18 20 -21 11
-3 20 -12 20 -19 0 -8 9 -14 21 -14 12 0 23 -8 26 -20 3 -13 17 -22 39 -26 24
-4 34 -12 34 -25 0 -12 7 -19 19 -19 13 0 21 -10 25 -34 4 -22 13 -36 26 -39
12 -3 20 -14 20 -26 0 -12 6 -21 15 -21 8 0 15 -9 15 -20 0 -13 7 -20 19 -20
15 0 20 -10 25 -45 5 -28 12 -45 21 -45 8 0 16 -16 20 -40 5 -30 11 -40 26
-40 14 0 19 -7 19 -29 0 -49 12 -91 26 -91 9 0 14 -11 14 -29 0 -49 12 -91 26
-91 12 0 14 -49 14 -280 l0 -280 89 0 c106 0 151 8 151 26 0 11 19 14 79 14
120 0 201 11 201 26 0 10 13 14 40 14 l40 0 0 219 c0 254 -7 341 -26 341 -11
0 -14 18 -14 69 0 87 -9 131 -26 131 -10 0 -14 13 -14 40 0 33 -3 40 -20 40
-16 0 -20 7 -20 34 0 53 -11 96 -25 96 -8 0 -16 18 -20 40 -4 23 -12 40 -20
40 -8 0 -16 17 -20 40 -4 23 -12 40 -20 40 -7 0 -16 15 -19 34 -4 22 -13 36
-26 39 -12 3 -20 14 -20 26 0 12 -6 21 -15 21 -8 0 -15 9 -15 20 0 13 -7 20
-20 20 -13 0 -20 7 -20 20 0 13 -7 20 -19 20 -13 0 -21 10 -25 34 -4 22 -13
36 -26 39 -12 3 -20 14 -20 26 0 12 -6 21 -15 21 -8 0 -15 7 -15 15 0 9 -9 15
-21 15 -12 0 -23 8 -26 20 -3 11 -12 20 -20 20 -8 0 -17 9 -20 20 -3 13 -17
22 -39 26 -24 4 -34 12 -34 25 0 12 -7 19 -20 19 -13 0 -20 7 -20 20 0 15 -7
20 -25 20 -15 0 -25 6 -25 14 0 9 -15 17 -40 21 -23 4 -40 12 -40 20 0 8 -17
16 -40 20 -30 5 -40 11 -40 26 0 16 -7 19 -40 19 -33 0 -40 3 -40 20 0 13 -7
20 -20 20 -11 0 -20 6 -20 14 0 14 -42 26 -91 26 -24 0 -29 4 -29 25 0 23 -4
25 -40 25 -27 0 -40 4 -40 14 0 17 -44 26 -131 26 -51 0 -69 3 -69 14 0 9 -20
15 -61 20 -64 6 -871 5 -946 -1z"/>
<path d="M30113 22963 c-47 -3 -63 -8 -63 -18 0 -11 -13 -15 -49 -15 -68 0
-111 -10 -111 -26 0 -9 -11 -14 -29 -14 -57 0 -91 -12 -91 -31 0 -15 -8 -19
-40 -19 -33 0 -40 -3 -40 -20 0 -17 -7 -20 -40 -20 -33 0 -40 -3 -40 -19 0
-15 -10 -21 -40 -26 -23 -4 -40 -12 -40 -20 0 -8 -17 -16 -40 -20 -23 -4 -40
-12 -40 -20 0 -7 -15 -16 -34 -19 -22 -4 -36 -13 -39 -26 -3 -12 -14 -20 -26
-20 -12 0 -21 -6 -21 -14 0 -7 -9 -16 -20 -19 -11 -3 -20 -12 -20 -21 0 -10
-9 -16 -25 -16 -18 0 -25 -5 -25 -19 0 -13 -10 -21 -34 -25 -22 -4 -36 -13
-39 -26 -3 -11 -12 -20 -20 -20 -8 0 -17 -9 -20 -20 -3 -11 -12 -20 -21 -20
-9 0 -18 -13 -22 -35 -4 -25 -11 -35 -25 -35 -12 0 -19 -7 -19 -20 0 -13 -7
-20 -20 -20 -13 0 -20 -7 -20 -20 0 -12 -7 -20 -16 -20 -9 0 -18 -9 -21 -20
-3 -11 -11 -20 -18 -20 -8 0 -16 -17 -20 -40 -5 -30 -11 -40 -26 -40 -16 0
-19 -7 -19 -40 0 -33 -3 -40 -20 -40 -17 0 -20 -7 -20 -40 0 -33 -3 -40 -20
-40 -17 0 -20 -7 -20 -40 0 -33 -3 -40 -20 -40 -17 0 -20 -7 -20 -45 0 -32 -4
-45 -14 -45 -14 0 -26 -42 -26 -91 0 -18 -5 -29 -14 -29 -7 0 -16 -14 -20 -31
-3 -17 -6 -62 -6 -100 0 -51 -3 -69 -14 -69 -9 0 -15 -25 -20 -92 -8 -119 -8
-3937 0 -4056 5 -67 11 -92 20 -92 11 0 14 -18 14 -69 0 -87 9 -131 26 -131 9
0 14 -11 14 -29 0 -49 12 -91 26 -91 9 0 14 -11 14 -29 0 -49 12 -91 26 -91 8
0 15 -18 20 -45 4 -27 12 -45 19 -45 8 0 16 -17 20 -40 4 -25 12 -40 21 -40 8
0 14 -9 14 -20 0 -13 7 -20 19 -20 15 0 21 -10 26 -40 4 -25 12 -40 21 -40 8
0 14 -9 14 -20 0 -13 7 -20 19 -20 14 0 21 -10 25 -35 4 -22 13 -35 22 -35 9
0 18 -9 21 -19 3 -11 13 -21 24 -24 11 -3 19 -14 19 -26 0 -12 6 -21 15 -21 8
0 15 -9 15 -20 0 -13 7 -20 20 -20 11 0 20 -7 20 -15 0 -9 9 -15 21 -15 12 0
23 -8 26 -20 4 -14 17 -22 44 -26 29 -5 39 -11 39 -25 0 -12 7 -19 20 -19 13
0 20 -7 20 -20 0 -13 7 -20 20 -20 11 0 20 -6 20 -14 0 -9 15 -17 40 -21 30
-5 40 -11 40 -26 0 -16 7 -19 40 -19 33 0 40 -3 40 -20 0 -13 7 -20 20 -20 11
0 20 -6 20 -14 0 -9 15 -17 40 -21 22 -4 40 -12 40 -20 0 -13 43 -25 91 -25
22 0 29 -5 29 -20 0 -18 7 -20 60 -20 44 0 60 -4 60 -14 0 -16 43 -26 111 -26
35 0 49 -4 49 -14 0 -20 129 -26 545 -26 416 0 545 6 545 26 0 10 14 14 49 14
68 0 111 10 111 26 0 11 17 14 65 14 58 0 65 2 65 20 0 15 7 20 29 20 48 0 91
12 91 25 0 8 18 16 40 20 25 4 40 12 40 21 0 8 9 14 20 14 13 0 20 7 20 20 0
17 7 20 40 20 33 0 40 3 40 19 0 15 10 21 40 26 25 4 40 12 40 21 0 8 9 14 20
14 13 0 20 7 20 20 0 13 7 20 20 20 13 0 20 7 20 19 0 13 10 21 34 25 22 4 36
13 39 26 3 12 14 20 26 20 12 0 21 6 21 15 0 8 7 15 15 15 9 0 15 9 15 21 0
12 8 23 19 26 11 3 21 13 24 24 3 10 12 19 20 19 8 0 17 9 20 20 3 11 12 20
21 20 9 0 18 13 22 35 4 25 11 35 25 35 12 0 19 7 19 20 0 11 6 20 14 20 9 0
17 15 21 40 5 30 11 40 26 40 12 0 19 7 19 20 0 11 6 20 14 20 9 0 17 15 21
40 5 29 12 40 25 40 18 0 30 40 30 103 0 20 5 27 20 27 17 0 20 7 20 40 0 27
4 40 14 40 14 0 26 42 26 91 0 18 5 29 14 29 18 0 26 45 26 151 0 68 3 89 14
89 9 0 15 25 20 92 8 119 8 3857 0 3976 -5 67 -11 92 -20 92 -11 0 -14 18 -14
69 0 38 -3 83 -6 100 -4 17 -13 31 -20 31 -10 0 -14 14 -14 49 0 68 -10 111
-26 111 -10 0 -14 13 -14 45 0 38 -3 45 -20 45 -17 0 -20 7 -20 40 0 36 -2 40
-25 40 -22 0 -25 4 -25 40 0 33 -3 40 -19 40 -15 0 -21 10 -26 40 -4 23 -12
40 -20 40 -7 0 -16 15 -19 34 -4 22 -13 36 -26 39 -12 3 -20 14 -20 26 0 12
-6 21 -15 21 -8 0 -15 9 -15 20 0 13 -7 20 -20 20 -13 0 -20 7 -20 20 0 13 -7
20 -20 20 -13 0 -20 7 -20 20 0 13 -7 20 -19 20 -14 0 -21 10 -25 35 -6 29
-12 35 -41 41 -25 4 -35 11 -35 25 0 12 -7 19 -20 19 -13 0 -20 7 -20 20 0 13
-7 20 -20 20 -11 0 -20 7 -20 15 0 9 -9 15 -21 15 -12 0 -23 8 -26 20 -3 13
-17 22 -39 26 -24 4 -34 12 -34 25 0 12 -7 19 -20 19 -11 0 -20 6 -20 14 0 9
-15 17 -40 21 -23 4 -40 12 -40 20 0 8 -17 16 -40 20 -30 5 -40 11 -40 26 0
16 -7 19 -40 19 -33 0 -40 3 -40 20 0 17 -7 20 -40 20 -32 0 -40 4 -40 19 0
20 -34 31 -96 31 -22 0 -34 5 -34 14 0 16 -43 26 -111 26 -35 0 -49 4 -49 14
0 9 -25 15 -92 20 -91 6 -818 5 -935 -1z m805 -600 c133 -4 182 -9 182 -18 0
-13 43 -25 91 -25 18 0 29 -5 29 -14 0 -9 15 -17 40 -21 24 -4 40 -12 40 -20
0 -9 17 -16 45 -21 27 -4 45 -12 45 -19 0 -8 17 -16 40 -20 30 -5 40 -11 40
-26 0 -12 7 -19 20 -19 13 0 20 -7 20 -20 0 -13 7 -20 20 -20 13 0 20 -7 20
-20 0 -15 7 -20 25 -20 16 0 25 -6 25 -15 0 -8 7 -15 15 -15 9 0 15 -9 15 -25
0 -18 5 -25 20 -25 13 0 20 -7 20 -20 0 -13 7 -20 20 -20 13 0 20 -7 20 -20 0
-13 7 -20 19 -20 16 0 21 -9 27 -45 4 -27 12 -45 19 -45 8 0 16 -17 20 -40 4
-23 12 -40 20 -40 8 0 16 -17 20 -40 4 -25 12 -40 21 -40 9 0 14 -11 14 -29 0
-49 12 -91 26 -91 10 0 14 -13 14 -39 0 -83 13 -161 26 -161 12 0 14 -316 14
-1960 0 -1644 -2 -1960 -14 -1960 -14 0 -26 -79 -26 -181 0 -52 -2 -59 -20
-59 -18 0 -20 -7 -20 -60 0 -53 -2 -60 -20 -60 -17 0 -20 -7 -20 -40 0 -33 -3
-40 -20 -40 -13 0 -20 -7 -20 -20 0 -11 -6 -20 -14 -20 -9 0 -17 -15 -21 -40
-5 -30 -11 -40 -26 -40 -12 0 -19 -7 -19 -20 0 -13 -7 -20 -20 -20 -15 0 -20
-7 -20 -25 0 -15 -6 -25 -14 -25 -9 0 -17 -15 -21 -39 -6 -34 -10 -40 -40 -45
-21 -4 -35 -13 -38 -26 -3 -11 -12 -20 -21 -20 -9 0 -16 -7 -16 -15 0 -9 -9
-15 -25 -15 -18 0 -25 -5 -25 -20 0 -13 -7 -20 -20 -20 -13 0 -20 -7 -20 -20
0 -17 -7 -20 -45 -20 -38 0 -45 -3 -45 -20 0 -17 -7 -20 -40 -20 -33 0 -40 -3
-40 -20 0 -18 -7 -20 -60 -20 -53 0 -60 -2 -60 -20 0 -18 -7 -20 -59 -20 -102
0 -181 -12 -181 -26 0 -12 -55 -14 -305 -14 -250 0 -305 2 -305 14 0 14 -79
26 -181 26 -52 0 -59 2 -59 20 0 18 -7 20 -60 20 -53 0 -60 2 -60 20 0 17 -7
20 -40 20 -33 0 -40 3 -40 20 0 17 -7 20 -40 20 -33 0 -40 3 -40 20 0 13 -7
20 -20 20 -13 0 -20 7 -20 20 0 15 -7 20 -25 20 -16 0 -25 6 -25 15 0 8 -7 15
-16 15 -9 0 -18 9 -21 20 -3 13 -17 22 -38 26 -30 5 -34 11 -40 45 -4 24 -12
39 -21 39 -8 0 -14 10 -14 25 0 18 -5 25 -20 25 -13 0 -20 7 -20 20 0 13 -7
20 -20 20 -13 0 -20 7 -20 20 0 13 -7 20 -20 20 -17 0 -20 7 -20 40 0 33 -3
40 -20 40 -17 0 -20 7 -20 40 0 33 -3 40 -20 40 -18 0 -20 7 -20 60 0 53 -2
60 -20 60 -18 0 -20 7 -20 69 0 96 -8 131 -31 131 -19 0 -19 51 -19 2000 0
1942 1 2000 19 2000 15 0 19 11 25 61 3 34 6 79 6 100 0 32 3 39 20 39 18 0
20 7 20 60 0 53 2 60 20 60 17 0 20 7 20 40 0 33 3 40 20 40 13 0 20 7 20 20
0 11 6 20 14 20 9 0 16 17 20 45 6 36 11 45 27 45 12 0 19 7 19 20 0 13 7 20
20 20 13 0 20 7 20 20 0 13 7 20 20 20 15 0 20 7 20 25 0 16 6 25 15 25 8 0
15 7 15 15 0 9 9 15 25 15 18 0 25 5 25 20 0 13 7 20 20 20 13 0 20 7 20 20 0
13 7 20 20 20 13 0 20 7 20 19 0 15 10 21 40 26 23 4 40 12 40 20 0 8 17 16
40 20 23 4 40 12 40 20 0 8 17 16 40 20 25 4 40 12 40 21 0 10 15 14 60 14 53
0 60 2 60 20 0 18 8 20 128 23 278 6 528 7 700 0z"/>
<path d="M39873 22963 c-29 -3 -43 -9 -43 -19 0 -11 -16 -14 -74 -14 -92 0
-136 -8 -136 -26 0 -9 -11 -14 -29 -14 -56 0 -91 -12 -91 -30 0 -13 -11 -20
-40 -25 -23 -4 -40 -12 -40 -20 0 -8 -17 -16 -40 -20 -23 -4 -40 -12 -40 -20
0 -8 -17 -16 -40 -20 -25 -4 -40 -12 -40 -21 0 -8 -9 -14 -20 -14 -13 0 -20
-7 -20 -20 0 -17 -7 -20 -40 -20 -33 0 -40 -3 -40 -20 0 -13 -7 -20 -20 -20
-13 0 -20 -7 -20 -19 0 -13 -10 -21 -34 -25 -22 -4 -36 -13 -39 -26 -3 -12
-14 -20 -26 -20 -12 0 -21 -6 -21 -15 0 -8 -9 -15 -20 -15 -13 0 -20 -7 -20
-20 0 -13 -7 -20 -20 -20 -13 0 -20 -7 -20 -20 0 -13 -7 -20 -20 -20 -13 0
-20 -7 -20 -20 0 -13 -7 -20 -20 -20 -13 0 -20 -7 -20 -20 0 -11 -7 -20 -15
-20 -9 0 -15 -9 -15 -21 0 -12 -8 -23 -20 -26 -13 -3 -22 -17 -26 -39 -4 -24
-12 -34 -25 -34 -12 0 -19 -7 -19 -20 0 -13 -7 -20 -20 -20 -17 0 -20 -7 -20
-40 0 -36 -2 -40 -25 -40 -22 0 -25 -4 -25 -40 0 -33 -3 -40 -20 -40 -13 0
-20 -7 -20 -20 0 -11 -6 -20 -14 -20 -14 0 -26 -42 -26 -91 0 -22 -5 -29 -20
-29 -17 0 -20 -7 -20 -45 0 -32 -4 -45 -14 -45 -16 0 -26 -43 -26 -111 0 -35
-4 -49 -14 -49 -7 0 -16 -14 -20 -31 -3 -17 -6 -213 -6 -434 0 -221 3 -417 6
-434 4 -17 13 -31 20 -31 10 0 14 -14 14 -49 0 -68 10 -111 26 -111 9 0 14
-11 14 -29 0 -49 12 -91 26 -91 10 0 14 -13 14 -40 0 -33 3 -40 19 -40 15 0
21 -10 26 -40 4 -23 12 -40 20 -40 7 0 16 -16 19 -35 5 -26 12 -35 26 -35 15
0 20 -7 20 -25 0 -18 5 -25 19 -25 14 0 21 -10 25 -35 4 -22 13 -35 22 -35 9
0 18 -9 21 -19 3 -11 13 -21 24 -24 11 -3 19 -14 19 -26 0 -12 6 -21 15 -21 8
0 15 -9 15 -20 0 -13 7 -20 20 -20 13 0 20 -7 20 -20 0 -13 7 -20 20 -20 13 0
20 -7 20 -20 0 -13 7 -20 20 -20 13 0 20 -7 20 -20 0 -15 7 -20 25 -20 18 0
25 -5 25 -20 0 -14 9 -21 35 -26 25 -4 35 -11 35 -25 0 -12 7 -19 20 -19 13 0
20 -7 20 -20 0 -13 7 -20 20 -20 11 0 20 -6 20 -14 0 -9 15 -17 40 -21 30 -5
40 -11 40 -26 0 -14 7 -19 25 -19 15 0 25 -6 25 -15 0 -8 14 -17 35 -21 19 -3
35 -12 35 -19 0 -8 17 -16 40 -20 23 -4 40 -12 40 -20 0 -8 17 -16 40 -20 23
-4 40 -12 40 -20 0 -8 17 -16 40 -20 22 -4 40 -12 40 -20 0 -14 43 -25 96 -25
27 0 34 -4 34 -20 0 -17 7 -20 40 -20 27 0 40 -4 40 -14 0 -14 42 -26 91 -26
18 0 29 -5 29 -14 0 -9 15 -17 40 -21 22 -4 40 -12 40 -20 0 -13 43 -25 91
-25 18 0 29 -5 29 -14 0 -14 42 -26 91 -26 22 0 29 -5 29 -20 0 -17 7 -20 40
-20 27 0 40 -4 40 -14 0 -14 42 -26 91 -26 18 0 29 -5 29 -14 0 -9 15 -17 40
-21 22 -4 40 -12 40 -20 0 -13 43 -25 91 -25 18 0 29 -5 29 -14 0 -9 15 -17
40 -21 23 -4 40 -12 40 -20 0 -7 18 -15 45 -19 28 -5 45 -12 45 -21 0 -8 16
-16 40 -20 23 -4 40 -12 40 -20 0 -8 17 -16 40 -20 23 -4 40 -12 40 -20 0 -8
17 -16 40 -20 30 -5 40 -11 40 -26 0 -12 7 -19 20 -19 13 0 20 -7 20 -19 0
-15 10 -21 40 -26 30 -5 40 -11 40 -26 0 -12 7 -19 20 -19 13 0 20 -7 20 -20
0 -13 7 -20 20 -20 11 0 20 -7 20 -15 0 -9 9 -15 21 -15 12 0 23 -8 26 -19 3
-11 13 -21 24 -24 10 -3 19 -12 19 -20 0 -8 9 -17 20 -20 11 -3 20 -12 20 -20
0 -8 9 -17 20 -20 11 -3 20 -12 20 -21 0 -9 7 -16 15 -16 9 0 15 -9 15 -25 0
-18 5 -25 20 -25 13 0 20 -7 20 -20 0 -13 7 -20 19 -20 15 0 21 -10 26 -40 4
-23 12 -40 20 -40 8 0 16 -17 20 -40 4 -23 12 -40 20 -40 8 0 16 -17 20 -40 4
-25 12 -40 21 -40 10 0 14 -13 14 -49 0 -68 10 -111 26 -111 12 0 14 -62 14
-365 0 -303 -2 -365 -14 -365 -14 0 -26 -42 -26 -91 0 -22 -5 -29 -20 -29 -17
0 -20 -7 -20 -40 0 -28 -4 -40 -14 -40 -9 0 -17 -15 -21 -40 -5 -30 -11 -40
-26 -40 -16 0 -19 -7 -19 -40 0 -33 -3 -40 -20 -40 -13 0 -20 -7 -20 -20 0
-13 -7 -20 -20 -20 -13 0 -20 -7 -20 -20 0 -11 -7 -20 -15 -20 -9 0 -15 -9
-15 -21 0 -12 -8 -23 -20 -26 -11 -3 -20 -14 -20 -25 0 -11 -8 -22 -19 -25
-11 -3 -21 -13 -24 -24 -3 -10 -12 -19 -20 -19 -8 0 -17 -9 -20 -20 -3 -12
-14 -20 -26 -20 -12 0 -21 -6 -21 -15 0 -8 -9 -15 -20 -15 -13 0 -20 -7 -20
-19 0 -15 -10 -21 -40 -26 -23 -4 -40 -12 -40 -20 0 -8 -17 -16 -40 -20 -23
-4 -40 -12 -40 -20 0 -8 -17 -16 -40 -20 -25 -4 -40 -12 -40 -21 0 -9 -11 -14
-29 -14 -48 0 -91 -12 -91 -25 0 -9 -35 -15 -125 -20 -97 -5 -125 -10 -125
-21 0 -12 -50 -14 -300 -14 -249 0 -300 2 -300 14 0 11 -28 15 -120 21 -86 5
-120 11 -120 20 0 14 -43 25 -96 25 -23 0 -34 5 -34 14 0 9 -15 17 -40 21 -23
4 -40 12 -40 20 0 8 -17 16 -40 20 -25 4 -40 12 -40 21 0 8 -9 14 -21 14 -12
0 -23 8 -26 20 -3 13 -17 22 -39 26 -24 4 -34 12 -34 25 0 12 -7 19 -20 19
-13 0 -20 7 -20 20 0 13 -7 20 -19 20 -10 0 -21 9 -24 20 -3 11 -12 20 -21 20
-10 0 -16 9 -16 25 0 18 -5 25 -20 25 -13 0 -20 7 -20 20 0 13 -7 20 -19 20
-13 0 -21 10 -25 34 -4 22 -13 36 -26 39 -12 3 -20 14 -20 26 0 12 -6 21 -14
21 -9 0 -17 15 -21 40 -4 25 -12 40 -21 40 -8 0 -14 9 -14 20 0 13 -7 20 -20
20 -15 0 -20 7 -20 29 0 48 -12 91 -25 91 -9 0 -15 34 -20 120 -6 92 -10 120
-21 120 -12 0 -14 40 -14 225 l0 225 -39 0 c-83 0 -161 -13 -161 -26 0 -10
-17 -14 -64 -14 -106 0 -186 -11 -186 -26 0 -11 -19 -14 -80 -14 l-80 0 0
-184 c0 -220 7 -306 26 -306 11 0 14 -22 14 -100 0 -93 1 -100 20 -100 17 0
20 -7 20 -49 0 -67 10 -111 25 -111 8 0 16 -18 20 -40 4 -23 12 -40 20 -40 8
0 16 -17 20 -40 4 -23 12 -40 20 -40 7 0 15 -18 19 -45 5 -27 12 -45 20 -45 8
0 17 -16 20 -35 4 -21 13 -35 21 -35 9 0 15 -10 15 -25 0 -18 5 -25 20 -25 13
0 20 -7 20 -20 0 -14 7 -20 24 -20 20 0 25 -6 31 -40 4 -25 12 -40 21 -40 8 0
14 -9 14 -20 0 -13 7 -20 20 -20 13 0 20 -7 20 -20 0 -13 7 -20 20 -20 13 0
20 -7 20 -20 0 -13 7 -20 20 -20 13 0 20 -7 20 -20 0 -13 7 -20 20 -20 13 0
20 -7 20 -20 0 -13 7 -20 20 -20 11 0 20 -7 20 -15 0 -9 9 -15 21 -15 12 0 23
-8 26 -20 3 -13 17 -22 39 -26 24 -4 34 -12 34 -25 0 -12 7 -19 20 -19 13 0
20 -7 20 -20 0 -17 7 -20 40 -20 33 0 40 -3 40 -20 0 -13 7 -20 20 -20 11 0
20 -6 20 -14 0 -9 15 -17 40 -21 23 -4 40 -12 40 -20 0 -8 17 -16 40 -20 22
-4 40 -12 40 -20 0 -13 43 -25 91 -25 22 0 29 -5 29 -20 0 -18 7 -20 60 -20
44 0 60 -4 60 -14 0 -18 44 -26 136 -26 56 0 74 -3 74 -14 0 -21 91 -26 525
-26 434 0 525 5 525 26 0 11 18 14 69 14 87 0 131 9 131 26 0 9 11 14 29 14
49 0 91 12 91 26 0 10 13 14 40 14 33 0 40 3 40 19 0 15 10 21 40 26 23 4 40
12 40 20 0 8 17 16 40 20 23 4 40 12 40 20 0 8 17 16 40 20 23 4 40 12 40 20
0 7 15 16 34 19 22 4 36 13 39 26 3 11 12 20 21 20 9 0 16 7 16 15 0 9 9 15
25 15 18 0 25 5 25 20 0 13 7 20 20 20 13 0 20 7 20 19 0 13 10 21 34 25 22 4
36 13 39 26 3 12 14 20 25 20 11 0 22 9 25 20 3 11 12 20 20 20 8 0 17 9 20
20 3 11 12 20 21 20 9 0 18 13 22 35 4 25 11 35 25 35 12 0 19 7 19 20 0 13 7
20 20 20 15 0 20 7 20 25 0 15 6 25 15 25 8 0 17 14 21 35 4 25 11 35 25 35
12 0 19 7 19 20 0 11 6 20 14 20 9 0 17 15 21 40 4 23 12 40 20 40 7 0 15 18
19 45 5 28 12 45 21 45 8 0 16 16 20 40 4 22 12 40 20 40 13 0 25 43 25 91 0
18 5 29 14 29 16 0 26 43 26 111 0 35 4 49 14 49 21 0 26 90 26 465 0 375 -5
465 -26 465 -10 0 -14 14 -14 49 0 68 -10 111 -26 111 -9 0 -14 11 -14 29 0
49 -12 91 -26 91 -10 0 -14 13 -14 40 0 33 -3 40 -20 40 -17 0 -20 7 -20 40 0
33 -3 40 -19 40 -15 0 -21 10 -26 40 -4 23 -12 40 -20 40 -8 0 -16 17 -20 40
-4 25 -12 40 -21 40 -8 0 -14 9 -14 20 0 13 -7 20 -20 20 -15 0 -20 7 -20 25
0 18 -5 25 -19 25 -13 0 -21 10 -25 34 -4 22 -13 36 -26 39 -11 3 -20 12 -20
20 0 8 -9 17 -20 20 -12 3 -20 14 -20 26 0 12 -6 21 -15 21 -8 0 -15 9 -15 20
0 15 -7 20 -25 20 -16 0 -25 6 -25 15 0 9 -9 15 -21 15 -12 0 -23 8 -26 20 -3
13 -17 22 -39 26 -24 4 -34 12 -34 25 0 12 -7 19 -20 19 -13 0 -20 7 -20 20 0
13 -7 20 -20 20 -11 0 -20 6 -20 14 0 9 -15 17 -40 21 -30 5 -40 11 -40 26 0
14 -7 19 -25 19 -15 0 -25 6 -25 15 0 8 -14 17 -35 21 -19 3 -35 12 -35 19 0
8 -17 16 -40 20 -30 5 -40 11 -40 26 0 16 -7 19 -40 19 -28 0 -40 4 -40 14 0
9 -15 17 -40 21 -23 4 -40 12 -40 20 0 8 -17 16 -40 20 -23 4 -40 12 -40 20 0
8 -17 16 -40 20 -23 4 -40 12 -40 20 0 8 -17 16 -40 20 -22 4 -40 12 -40 20 0
13 -43 25 -91 25 -18 0 -29 5 -29 14 0 9 -17 16 -45 20 -27 5 -45 12 -45 20 0
14 -42 26 -91 26 -22 0 -29 5 -29 20 0 17 -7 20 -40 20 -27 0 -40 4 -40 14 0
14 -42 26 -91 26 -22 0 -29 5 -29 20 0 17 -7 20 -40 20 -32 0 -40 4 -40 19 0
19 -34 31 -91 31 -22 0 -29 5 -29 20 0 17 -7 20 -40 20 -28 0 -40 4 -40 14 0
9 -15 17 -40 21 -23 4 -40 12 -40 20 0 8 -17 16 -40 20 -22 4 -40 12 -40 20 0
13 -43 25 -91 25 -22 0 -29 5 -29 20 0 15 -7 20 -25 20 -15 0 -25 6 -25 15 0
10 -14 17 -40 21 -23 4 -40 12 -40 19 0 8 -18 16 -40 20 -30 5 -40 11 -40 26
0 12 -7 19 -20 19 -11 0 -20 6 -20 14 0 9 -15 17 -40 21 -30 5 -40 11 -40 26
0 12 -7 19 -20 19 -13 0 -20 7 -20 20 0 13 -7 20 -20 20 -13 0 -20 7 -20 20 0
13 -7 20 -19 20 -10 0 -21 9 -24 20 -3 11 -12 20 -21 20 -9 0 -16 8 -16 20 0
13 -7 20 -20 20 -13 0 -20 7 -20 20 0 13 -7 20 -19 20 -14 0 -21 10 -25 35 -4
21 -13 35 -21 35 -9 0 -15 10 -15 25 0 18 -5 25 -19 25 -15 0 -21 10 -26 40
-4 23 -12 40 -20 40 -8 0 -16 17 -20 40 -4 25 -12 40 -21 40 -9 0 -14 11 -14
28 0 51 -13 102 -25 102 -17 0 -28 293 -19 510 5 124 10 170 19 170 13 0 25
43 25 91 0 18 5 29 14 29 14 0 26 42 26 91 0 22 5 29 20 29 17 0 20 7 20 40 0
33 3 40 20 40 16 0 20 7 20 30 0 20 5 30 15 30 8 0 17 14 21 35 4 25 11 35 25
35 12 0 19 7 19 20 0 13 7 20 20 20 13 0 20 7 20 20 0 13 7 20 20 20 13 0 20
7 20 20 0 13 7 20 20 20 13 0 20 7 20 19 0 13 10 21 34 25 22 4 36 13 39 26 3
11 12 20 21 20 9 0 16 7 16 15 0 9 9 15 25 15 18 0 25 5 25 19 0 15 10 21 40
26 24 4 40 12 40 20 0 9 17 16 45 21 28 4 45 11 45 20 0 9 11 14 29 14 48 0
91 12 91 25 0 22 469 33 813 18 113 -4 157 -10 157 -18 0 -15 45 -25 111 -25
42 0 49 -3 49 -20 0 -17 7 -20 40 -20 33 0 40 -3 40 -20 0 -17 7 -20 40 -20
33 0 40 -3 40 -20 0 -13 7 -20 20 -20 13 0 20 -7 20 -20 0 -13 7 -20 20 -20
11 0 20 -7 20 -15 0 -9 9 -15 21 -15 12 0 23 -8 26 -20 3 -12 17 -22 38 -26
28 -5 34 -11 39 -39 4 -21 14 -35 26 -38 11 -3 20 -12 20 -20 0 -8 9 -17 20
-20 12 -3 20 -14 20 -26 0 -12 6 -21 15 -21 8 0 15 -9 15 -20 0 -13 7 -20 20
-20 17 0 20 -7 20 -45 0 -38 3 -45 19 -45 15 0 21 -10 26 -40 4 -25 12 -40 21
-40 9 0 14 -11 14 -29 0 -49 12 -91 26 -91 9 0 14 -11 14 -29 0 -49 12 -91 26
-91 12 0 14 -43 14 -240 l0 -240 29 0 c49 0 91 12 91 26 0 11 21 14 94 14 111
0 156 8 156 26 0 11 20 14 89 14 49 0 103 3 120 6 l31 7 0 182 c0 198 -5 245
-26 245 -11 0 -14 17 -14 69 0 87 -9 131 -26 131 -10 0 -14 16 -14 60 0 53 -2
60 -20 60 -16 0 -20 7 -20 34 0 53 -11 96 -25 96 -8 0 -16 18 -20 40 -4 23
-12 40 -20 40 -8 0 -16 17 -20 40 -4 23 -12 40 -20 40 -7 0 -16 15 -19 34 -4
22 -13 36 -26 39 -12 3 -20 14 -20 26 0 12 -6 21 -15 21 -8 0 -15 9 -15 20 0
13 -7 20 -20 20 -13 0 -20 7 -20 20 0 13 -7 20 -19 20 -14 0 -21 10 -25 35 -4
22 -13 35 -22 35 -9 0 -18 9 -21 20 -3 11 -14 20 -25 20 -11 0 -22 9 -25 20
-3 11 -12 20 -20 20 -8 0 -17 9 -20 20 -3 13 -17 22 -39 26 -24 4 -34 12 -34
25 0 12 -7 19 -20 19 -13 0 -20 7 -20 20 0 13 -7 20 -20 20 -11 0 -20 7 -20
15 0 9 -9 15 -21 15 -12 0 -23 8 -26 20 -3 13 -17 22 -39 26 -19 3 -34 12 -34
19 0 8 -17 16 -40 20 -30 5 -40 11 -40 26 0 16 -7 19 -40 19 -33 0 -40 3 -40
20 0 17 -7 20 -40 20 -33 0 -40 3 -40 20 0 17 -7 20 -40 20 -36 0 -40 3 -40
25 0 23 -4 25 -40 25 -27 0 -40 4 -40 14 0 17 -44 26 -131 26 -51 0 -69 3 -69
14 0 9 -20 15 -61 20 -64 6 -831 5 -906 -1z"/>
<path d="M7610 22840 c0 -29 4 -40 15 -40 10 0 15 -10 15 -29 0 -49 12 -91 26
-91 10 0 14 -14 14 -49 0 -68 10 -111 26 -111 9 0 14 -11 14 -29 0 -49 12 -91
26 -91 10 0 14 -16 14 -60 0 -53 2 -60 20 -60 17 0 20 -7 20 -49 0 -68 10
-111 26 -111 9 0 14 -11 14 -29 0 -49 12 -91 26 -91 10 0 14 -14 14 -47 0 -73
11 -123 26 -123 9 0 14 -11 14 -29 0 -49 12 -91 26 -91 10 0 14 -16 14 -60 0
-53 2 -60 20 -60 17 0 20 -7 20 -49 0 -68 10 -111 26 -111 9 0 14 -11 14 -29
0 -49 12 -91 26 -91 10 0 14 -14 14 -49 0 -68 10 -111 26 -111 9 0 14 -11 14
-29 0 -49 12 -91 26 -91 10 0 14 -14 14 -49 0 -68 10 -111 26 -111 9 0 14 -12
14 -34 0 -54 11 -96 26 -96 10 0 14 -16 14 -60 0 -53 2 -60 20 -60 17 0 20 -7
20 -49 0 -68 10 -111 26 -111 9 0 14 -11 14 -29 0 -49 12 -91 26 -91 10 0 14
-14 14 -49 0 -76 10 -111 31 -111 14 0 19 -7 19 -29 0 -49 12 -91 26 -91 10 0
14 -16 14 -60 0 -53 2 -60 20 -60 17 0 20 -7 20 -47 0 -73 11 -123 26 -123 9
0 14 -11 14 -29 0 -49 12 -91 26 -91 10 0 14 -14 14 -49 0 -68 10 -111 26
-111 9 0 14 -11 14 -29 0 -49 12 -91 26 -91 10 0 14 -14 14 -49 0 -68 10 -111
26 -111 9 0 14 -11 14 -29 0 -49 12 -91 26 -91 10 0 14 -16 14 -60 0 -53 2
-60 20 -60 17 0 20 -7 20 -49 0 -68 10 -111 26 -111 9 0 14 -12 14 -34 0 -54
11 -96 26 -96 10 0 14 -14 14 -49 0 -68 10 -111 26 -111 9 0 14 -11 14 -29 0
-49 12 -91 26 -91 10 0 14 -14 14 -49 0 -68 10 -111 26 -111 9 0 14 -11 14
-29 0 -49 12 -91 26 -91 9 0 14 -11 14 -29 0 -49 12 -91 26 -91 10 0 14 -14
14 -49 0 -68 10 -111 26 -111 9 0 14 -12 14 -34 0 -54 11 -96 26 -96 10 0 14
-14 14 -49 0 -68 10 -111 26 -111 9 0 14 -11 14 -29 0 -49 12 -91 26 -91 10 0
14 -16 14 -60 0 -53 2 -60 20 -60 17 0 20 -7 20 -49 0 -68 10 -111 26 -111 9
0 14 -11 14 -29 0 -49 12 -91 26 -91 10 0 14 -14 14 -49 0 -68 10 -111 26
-111 9 0 14 -11 14 -27 0 -55 13 -103 26 -103 10 0 14 -14 14 -49 0 -76 10
-111 31 -111 14 0 19 -7 19 -29 0 -49 12 -91 26 -91 9 0 14 -11 14 -29 0 -49
12 -91 26 -91 10 0 14 -14 14 -49 0 -68 10 -111 26 -111 9 0 14 -11 14 -29 0
-48 12 -91 25 -91 9 0 14 -22 17 -69 2 -39 7 -74 12 -78 10 -10 322 -10 332 0
5 4 10 39 12 78 3 47 8 69 17 69 13 0 25 43 25 91 0 18 5 29 14 29 16 0 26 43
26 111 0 35 4 49 14 49 14 0 26 42 26 91 0 18 5 29 14 29 14 0 26 42 26 91 0
18 5 29 14 29 16 0 26 43 26 111 0 35 4 49 14 49 13 0 26 48 26 103 0 16 5 27
14 27 16 0 26 43 26 111 0 42 3 49 20 49 18 0 20 7 20 60 0 44 4 60 14 60 14
0 26 42 26 91 0 18 5 29 14 29 16 0 26 43 26 111 0 35 4 49 14 49 14 0 26 42
26 91 0 18 5 29 14 29 16 0 26 43 26 111 0 46 2 49 25 49 24 0 25 2 25 65 0
48 3 65 14 65 14 0 26 42 26 91 0 18 5 29 14 29 16 0 26 43 26 111 0 35 4 49
14 49 14 0 26 42 26 91 0 18 5 29 14 29 16 0 26 43 26 111 0 42 3 49 20 49 18
0 20 7 20 60 0 44 4 60 14 60 14 0 26 42 26 91 0 18 5 29 14 29 16 0 26 43 26
116 0 39 4 54 14 54 14 0 26 42 26 91 0 18 5 29 14 29 16 0 26 43 26 111 0 42
3 49 20 49 18 0 20 7 20 60 0 44 4 60 14 60 14 0 26 42 26 91 0 18 5 29 14 29
16 0 26 43 26 111 0 35 4 49 14 49 14 0 26 42 26 91 0 18 5 29 14 29 16 0 26
43 26 111 0 42 3 49 20 49 18 0 20 7 20 65 0 48 3 65 14 65 14 0 26 42 26 91
0 18 5 29 14 29 16 0 26 43 26 111 0 35 4 49 14 49 14 0 26 42 26 91 0 18 5
29 14 29 16 0 26 43 26 111 0 42 3 49 20 49 18 0 20 7 20 60 0 44 4 60 14 60
14 0 26 42 26 91 0 18 5 29 14 29 16 0 26 43 26 116 0 39 4 54 14 54 14 0 26
42 26 91 0 18 5 29 14 29 16 0 26 43 26 111 0 42 3 49 20 49 18 0 20 7 20 60
0 52 3 60 19 60 19 0 31 34 31 91 0 18 5 29 14 29 16 0 26 43 26 111 0 35 4
49 14 49 14 0 26 42 26 91 0 18 5 29 14 29 14 0 26 42 26 91 0 18 5 29 14 29
16 0 26 43 26 116 0 39 4 54 14 54 14 0 26 42 26 91 0 18 5 29 14 29 16 0 26
43 26 111 0 35 4 49 14 49 14 0 26 42 26 91 0 18 5 29 14 29 14 0 26 42 26 91
0 18 5 29 14 29 16 0 26 43 26 111 0 35 4 49 14 49 14 0 26 42 26 91 0 19 5
29 15 29 8 0 16 8 17 18 0 9 2 36 4 60 l3 42 -305 0 c-297 0 -304 0 -304 -20
0 -13 -7 -20 -20 -20 -18 0 -20 -7 -20 -60 0 -44 -4 -60 -14 -60 -16 0 -26
-43 -26 -111 0 -42 -3 -49 -20 -49 -18 0 -20 -7 -20 -60 0 -44 -4 -60 -14 -60
-16 0 -26 -43 -26 -111 0 -42 -3 -49 -20 -49 -18 0 -20 -7 -20 -60 0 -44 -4
-60 -14 -60 -16 0 -26 -43 -26 -111 0 -35 -4 -49 -14 -49 -14 0 -26 -42 -26
-91 0 -18 -5 -29 -14 -29 -15 0 -26 -50 -26 -122 0 -34 -4 -48 -14 -48 -14 0
-26 -42 -26 -91 0 -18 -5 -29 -14 -29 -16 0 -26 -43 -26 -111 0 -35 -4 -49
-14 -49 -14 0 -26 -42 -26 -91 0 -18 -5 -29 -14 -29 -16 0 -26 -43 -26 -111 0
-35 -4 -49 -14 -49 -14 0 -26 -42 -26 -91 0 -18 -5 -29 -14 -29 -16 0 -26 -43
-26 -111 0 -35 -4 -49 -14 -49 -15 0 -26 -42 -26 -96 0 -22 -5 -34 -14 -34
-16 0 -26 -43 -26 -111 0 -35 -4 -49 -14 -49 -14 0 -26 -42 -26 -91 0 -18 -5
-29 -14 -29 -16 0 -26 -43 -26 -111 0 -35 -4 -49 -14 -49 -14 0 -26 -42 -26
-91 0 -18 -5 -29 -14 -29 -16 0 -26 -43 -26 -111 0 -35 -4 -49 -14 -49 -14 0
-26 -42 -26 -91 0 -18 -5 -29 -14 -29 -16 0 -26 -43 -26 -116 0 -46 -3 -54
-19 -54 -19 0 -31 -34 -31 -91 0 -18 -5 -29 -14 -29 -16 0 -26 -43 -26 -111 0
-35 -4 -49 -14 -49 -14 0 -26 -42 -26 -91 0 -18 -5 -29 -14 -29 -16 0 -26 -43
-26 -111 0 -35 -4 -49 -14 -49 -16 0 -26 -43 -26 -111 0 -42 -3 -49 -20 -49
-18 0 -20 -7 -20 -60 0 -44 -4 -60 -14 -60 -16 0 -26 -43 -26 -116 0 -47 -2
-54 -20 -54 -18 0 -20 -7 -20 -60 0 -44 -4 -60 -14 -60 -16 0 -26 -43 -26
-111 0 -35 -4 -49 -14 -49 -14 0 -26 -42 -26 -91 0 -18 -5 -29 -14 -29 -16 0
-26 -43 -26 -111 0 -35 -4 -49 -14 -49 -14 0 -26 -42 -26 -91 0 -18 -5 -29
-14 -29 -16 0 -26 -43 -26 -111 0 -35 -4 -49 -14 -49 -15 0 -26 -42 -26 -96 0
-22 -5 -34 -14 -34 -16 0 -26 -43 -26 -111 0 -35 -4 -49 -14 -49 -14 0 -26
-42 -26 -91 0 -18 -5 -29 -14 -29 -16 0 -26 -51 -26 -137 0 -56 -2 -63 -20
-63 -18 0 -20 7 -20 89 0 106 -8 151 -26 151 -9 0 -14 11 -14 29 0 49 -12 91
-26 91 -10 0 -14 14 -14 48 0 72 -11 122 -26 122 -9 0 -14 11 -14 29 0 49 -12
91 -26 91 -10 0 -14 14 -14 49 0 68 -10 111 -26 111 -9 0 -14 11 -14 29 0 49
-12 91 -26 91 -10 0 -14 14 -14 49 0 68 -10 111 -26 111 -9 0 -14 11 -14 29 0
49 -12 91 -26 91 -10 0 -14 14 -14 49 0 76 -10 111 -31 111 -14 0 -19 7 -19
29 0 49 -12 91 -26 91 -10 0 -14 15 -14 54 0 73 -10 116 -26 116 -10 0 -14 16
-14 60 0 53 -2 60 -20 60 -17 0 -20 7 -20 49 0 68 -10 111 -26 111 -10 0 -14
14 -14 49 0 68 -10 111 -26 111 -9 0 -14 11 -14 29 0 49 -12 91 -26 91 -10 0
-14 14 -14 49 0 68 -10 111 -26 111 -9 0 -14 11 -14 29 0 49 -12 91 -26 91
-10 0 -14 15 -14 54 0 73 -10 116 -26 116 -9 0 -14 11 -14 29 0 49 -12 91 -26
91 -10 0 -14 14 -14 49 0 68 -10 111 -26 111 -9 0 -14 11 -14 29 0 49 -12 91
-26 91 -10 0 -14 14 -14 49 0 68 -10 111 -26 111 -9 0 -14 11 -14 29 0 49 -12
91 -26 91 -10 0 -14 14 -14 49 0 68 -10 111 -26 111 -9 0 -14 12 -14 34 0 54
-11 96 -26 96 -10 0 -14 14 -14 49 0 68 -10 111 -26 111 -10 0 -14 16 -14 60
0 53 -2 60 -20 60 -17 0 -20 7 -20 49 0 68 -10 111 -26 111 -10 0 -14 14 -14
49 0 68 -10 111 -26 111 -9 0 -14 11 -14 29 0 49 -12 91 -26 91 -10 0 -14 14
-14 49 0 68 -10 111 -26 111 -9 0 -14 12 -14 34 0 54 -11 96 -26 96 -10 0 -14
14 -14 49 0 68 -10 111 -26 111 -9 0 -14 11 -14 29 0 49 -12 91 -26 91 -10 0
-14 14 -14 49 0 76 -10 111 -31 111 -14 0 -19 7 -19 29 0 49 -12 91 -26 91
-10 0 -14 14 -14 49 0 68 -10 111 -26 111 -9 0 -14 11 -14 29 0 49 -12 91 -26
91 -9 0 -14 11 -14 29 0 16 -3 43 -6 60 l-6 31 -309 0 -309 0 0 -40z"/>
<path d="M12400 22860 c0 -11 -7 -20 -15 -20 -13 0 -15 -392 -15 -3464 l0
-3464 23 -6 c12 -3 147 -6 300 -6 l277 0 0 2665 c0 2658 0 2665 20 2665 17 0
20 -7 20 -40 0 -33 3 -40 20 -40 18 0 20 -7 20 -69 0 -87 9 -131 26 -131 8 0
14 -9 14 -20 0 -13 7 -20 20 -20 17 0 20 -7 20 -40 0 -33 4 -40 19 -40 15 0
20 -10 25 -45 5 -28 12 -45 21 -45 8 0 16 -16 20 -40 4 -25 12 -40 21 -40 8 0
14 -9 14 -20 0 -13 7 -20 20 -20 17 0 20 -7 20 -40 0 -33 3 -40 19 -40 15 0
21 -10 26 -40 4 -23 12 -40 20 -40 8 0 16 -17 20 -40 4 -25 12 -40 21 -40 8 0
14 -9 14 -20 0 -13 7 -20 20 -20 17 0 20 -7 20 -40 0 -33 3 -40 19 -40 15 0
21 -10 26 -40 4 -23 12 -40 20 -40 8 0 16 -17 20 -40 4 -25 12 -40 21 -40 8 0
14 -9 14 -20 0 -15 7 -20 25 -20 23 0 25 -4 25 -40 0 -33 3 -40 19 -40 15 0
21 -10 26 -40 4 -23 12 -40 20 -40 8 0 16 -17 20 -40 4 -25 12 -40 21 -40 8 0
14 -10 14 -25 0 -18 5 -25 20 -25 17 0 20 -7 20 -40 0 -33 3 -40 19 -40 15 0
21 -10 26 -40 4 -23 12 -40 20 -40 8 0 16 -17 20 -40 4 -25 12 -40 21 -40 8 0
14 -9 14 -20 0 -13 7 -20 20 -20 17 0 20 -7 20 -40 0 -33 3 -40 19 -40 15 0
21 -10 26 -40 4 -23 12 -40 20 -40 8 0 16 -17 20 -40 4 -25 12 -40 21 -40 8 0
14 -9 14 -20 0 -13 7 -20 19 -20 15 0 21 -10 26 -40 4 -23 12 -40 20 -40 8 0
16 -17 20 -40 4 -23 12 -40 20 -40 8 0 16 -17 20 -40 4 -25 12 -40 21 -40 8 0
14 -9 14 -20 0 -13 7 -20 19 -20 15 0 21 -10 26 -40 4 -24 12 -40 20 -40 9 0
16 -17 21 -45 4 -27 12 -45 19 -45 8 0 16 -17 20 -40 4 -25 12 -40 21 -40 8 0
14 -9 14 -20 0 -13 7 -20 19 -20 15 0 21 -10 26 -40 4 -23 12 -40 20 -40 8 0
16 -17 20 -40 4 -23 12 -40 20 -40 8 0 16 -17 20 -40 4 -25 12 -40 21 -40 8 0
14 -9 14 -20 0 -13 7 -20 19 -20 15 0 21 -10 26 -40 4 -23 12 -40 20 -40 8 0
16 -17 20 -40 5 -30 12 -40 25 -40 13 0 20 -10 25 -40 4 -25 12 -40 21 -40 8
0 14 -9 14 -20 0 -13 7 -20 19 -20 15 0 21 -10 26 -40 4 -23 12 -40 20 -40 8
0 16 -17 20 -40 4 -23 12 -40 20 -40 7 0 16 -16 19 -35 4 -21 13 -35 21 -35 9
0 15 -10 15 -25 0 -18 5 -25 19 -25 15 0 20 -10 25 -45 5 -28 12 -45 21 -45 8
0 16 -16 20 -40 4 -23 12 -40 20 -40 7 0 16 -16 19 -35 4 -21 13 -35 21 -35 9
0 15 -10 15 -25 0 -18 5 -25 19 -25 15 0 21 -10 26 -40 4 -23 12 -40 20 -40 8
0 16 -17 20 -40 4 -23 12 -40 20 -40 7 0 16 -16 19 -35 4 -21 13 -35 21 -35 9
0 15 -10 15 -25 0 -18 5 -25 19 -25 15 0 21 -10 26 -40 4 -23 12 -40 20 -40 8
0 16 -17 20 -40 4 -23 12 -40 20 -40 7 0 16 -16 19 -35 4 -21 13 -35 21 -35 9
0 15 -10 15 -25 0 -18 5 -25 19 -25 15 0 21 -10 26 -40 4 -23 12 -40 20 -40 8
0 16 -17 20 -40 4 -25 12 -40 21 -40 8 0 14 -10 14 -25 0 -18 5 -25 20 -25 17
0 20 -7 20 -40 0 -33 3 -40 19 -40 15 0 21 -10 26 -40 4 -23 12 -40 20 -40 8
0 16 -17 20 -40 4 -25 12 -40 21 -40 8 0 14 -9 14 -20 0 -13 7 -20 20 -20 17
0 20 -7 20 -40 0 -36 3 -40 24 -40 20 0 25 -6 31 -40 4 -23 12 -40 20 -40 8 0
16 -17 20 -40 4 -25 12 -40 21 -40 8 0 14 -9 14 -20 0 -13 7 -20 20 -20 17 0
20 -7 20 -40 0 -33 3 -40 19 -40 15 0 21 -10 26 -40 4 -23 12 -40 20 -40 8 0
16 -17 20 -40 4 -25 12 -40 21 -40 8 0 14 -9 14 -20 0 -19 7 -20 160 -20 l160
0 0 3490 0 3490 -305 0 -305 0 0 -2665 c0 -2658 0 -2665 -20 -2665 -18 0 -20
7 -20 60 0 53 -2 60 -20 60 -18 0 -20 7 -20 54 0 72 -10 116 -25 116 -8 0 -16
18 -20 40 -4 25 -12 40 -21 40 -8 0 -14 9 -14 20 0 13 -7 20 -19 20 -15 0 -21
10 -26 40 -4 23 -12 40 -20 40 -8 0 -16 17 -20 40 -4 23 -12 40 -20 40 -8 0
-16 17 -20 40 -4 25 -12 40 -21 40 -8 0 -14 9 -14 20 0 13 -7 20 -19 20 -15 0
-21 10 -26 40 -4 23 -12 40 -20 40 -8 0 -16 17 -20 40 -4 23 -12 40 -20 40 -8
0 -16 17 -20 40 -4 25 -12 40 -21 40 -8 0 -14 9 -14 20 0 13 -7 20 -19 20 -15
0 -21 10 -26 40 -4 23 -12 40 -20 40 -8 0 -16 17 -20 40 -4 23 -12 40 -20 40
-7 0 -16 16 -19 35 -4 21 -13 35 -21 35 -10 0 -15 10 -15 30 0 23 -5 30 -19
30 -15 0 -21 10 -26 40 -4 23 -12 40 -20 40 -8 0 -16 17 -20 40 -4 23 -12 40
-20 40 -7 0 -16 16 -19 35 -4 21 -13 35 -21 35 -9 0 -15 10 -15 25 0 18 -5 25
-19 25 -15 0 -21 10 -26 40 -4 23 -12 40 -20 40 -8 0 -16 17 -20 40 -4 23 -12
40 -20 40 -7 0 -16 16 -19 35 -4 21 -13 35 -21 35 -9 0 -15 10 -15 25 0 18 -5
25 -19 25 -15 0 -21 10 -26 40 -5 30 -12 40 -25 40 -13 0 -20 10 -25 40 -4 23
-12 40 -20 40 -7 0 -16 16 -19 35 -4 21 -13 35 -21 35 -9 0 -15 10 -15 25 0
18 -5 25 -19 25 -15 0 -21 10 -26 40 -4 24 -12 40 -20 40 -9 0 -16 17 -21 45
-4 28 -11 45 -20 45 -8 0 -14 9 -14 20 0 13 -7 20 -20 20 -17 0 -20 7 -20 40
0 33 -3 40 -19 40 -15 0 -21 10 -26 40 -4 23 -12 40 -20 40 -8 0 -16 17 -20
40 -4 25 -12 40 -21 40 -8 0 -14 9 -14 20 0 13 -7 20 -20 20 -17 0 -20 7 -20
40 0 33 -3 40 -19 40 -15 0 -21 10 -26 40 -4 23 -12 40 -20 40 -8 0 -16 17
-20 40 -4 25 -12 40 -21 40 -8 0 -14 9 -14 20 0 13 -7 20 -20 20 -17 0 -20 7
-20 40 0 33 -3 40 -19 40 -15 0 -21 10 -26 40 -4 23 -12 40 -20 40 -8 0 -16
17 -20 40 -4 25 -12 40 -21 40 -8 0 -14 9 -14 20 0 13 -7 20 -20 20 -17 0 -20
7 -20 40 0 33 -4 40 -19 40 -15 0 -20 10 -25 45 -5 28 -12 45 -21 45 -8 0 -16
16 -20 40 -4 25 -12 40 -21 40 -8 0 -14 9 -14 20 0 13 -7 20 -20 20 -17 0 -20
7 -20 40 0 33 -3 40 -19 40 -15 0 -21 10 -26 40 -4 23 -12 40 -20 40 -8 0 -16
17 -20 40 -4 25 -12 40 -21 40 -8 0 -14 9 -14 20 0 15 -7 20 -25 20 -22 0 -25
4 -25 40 0 33 -3 40 -19 40 -15 0 -21 10 -26 40 -4 23 -12 40 -20 40 -8 0 -16
17 -20 40 -4 25 -12 40 -21 40 -8 0 -14 9 -14 20 0 13 -7 20 -20 20 -17 0 -20
7 -20 40 0 33 -3 40 -19 40 -15 0 -21 10 -26 40 -4 23 -12 40 -20 40 -8 0 -16
17 -20 40 -4 25 -12 40 -21 40 -8 0 -14 9 -14 20 0 13 -7 20 -20 20 -17 0 -20
7 -20 45 0 38 -3 45 -19 45 -15 0 -21 10 -26 40 -4 23 -12 40 -20 40 -8 0 -16
17 -20 40 -4 25 -12 40 -21 40 -8 0 -14 9 -14 20 0 13 -7 20 -20 20 -17 0 -20
7 -20 40 0 33 -3 40 -19 40 -15 0 -21 10 -26 40 -4 23 -12 40 -20 40 -8 0 -16
17 -20 40 -4 25 -12 40 -21 40 -8 0 -14 9 -14 20 0 13 -7 20 -20 20 -17 0 -20
7 -20 40 0 33 -3 40 -19 40 -15 0 -21 10 -26 40 -4 23 -12 40 -20 40 -8 0 -16
17 -20 40 -4 25 -12 40 -21 40 -8 0 -14 9 -14 20 0 13 -7 20 -20 20 -17 0 -20
7 -20 40 0 33 -3 40 -19 40 -15 0 -21 10 -26 40 -4 25 -12 40 -21 40 -8 0 -14
9 -14 20 0 19 -7 20 -145 20 -138 0 -145 -1 -145 -20z"/>
<path d="M17370 22860 c0 -11 -7 -20 -15 -20 -13 0 -15 -392 -15 -3464 l0
-3464 23 -6 c29 -8 555 -8 585 0 l22 6 0 1589 0 1589 1335 0 1335 0 0 -1595 0
-1595 305 0 305 0 0 3490 0 3490 -299 0 -298 0 -7 -31 c-3 -17 -6 -737 -6
-1600 l0 -1569 -1332 2 -1333 3 -3 1578 c-2 1392 -4 1577 -17 1577 -8 0 -15 9
-15 20 0 20 -7 20 -285 20 -278 0 -285 0 -285 -20z"/>
<path d="M33530 19390 l0 -3490 300 0 300 0 0 2665 c0 2658 0 2665 20 2665 18
0 20 -7 20 -80 0 -73 2 -80 20 -80 18 0 20 -7 20 -60 0 -53 2 -60 20 -60 17 0
20 -7 20 -40 0 -33 3 -40 19 -40 16 0 21 -9 27 -45 4 -27 12 -45 19 -45 8 0
16 -17 20 -40 4 -25 12 -40 21 -40 8 0 14 -9 14 -20 0 -13 7 -20 20 -20 17 0
20 -7 20 -40 0 -33 3 -40 19 -40 15 0 21 -10 26 -40 5 -30 12 -40 25 -40 13 0
20 -10 25 -40 4 -25 12 -40 21 -40 8 0 14 -9 14 -20 0 -13 7 -20 20 -20 17 0
20 -7 20 -40 0 -33 3 -40 19 -40 15 0 21 -10 26 -40 4 -23 12 -40 20 -40 8 0
16 -17 20 -40 4 -25 12 -40 21 -40 8 0 14 -9 14 -20 0 -13 7 -20 20 -20 17 0
20 -7 20 -40 0 -33 3 -40 19 -40 15 0 21 -10 26 -40 4 -23 12 -40 20 -40 8 0
16 -17 20 -40 4 -25 12 -40 21 -40 8 0 14 -9 14 -20 0 -13 7 -20 19 -20 15 0
20 -10 25 -45 5 -28 12 -45 21 -45 8 0 16 -16 20 -40 4 -23 12 -40 20 -40 8 0
16 -17 20 -40 4 -25 12 -40 21 -40 8 0 14 -9 14 -20 0 -13 7 -20 19 -20 15 0
21 -10 26 -40 4 -23 12 -40 20 -40 8 0 16 -17 20 -40 4 -23 12 -40 20 -40 8 0
16 -17 20 -40 4 -25 12 -40 21 -40 8 0 14 -9 14 -20 0 -13 7 -20 19 -20 15 0
21 -10 26 -40 4 -23 12 -40 20 -40 8 0 16 -17 20 -40 4 -23 12 -40 20 -40 7 0
16 -16 19 -35 4 -21 13 -35 21 -35 9 0 15 -10 15 -25 0 -18 5 -25 19 -25 15 0
21 -10 26 -40 4 -23 12 -40 20 -40 8 0 16 -17 20 -40 4 -22 12 -40 20 -40 7 0
15 -17 19 -40 4 -26 11 -40 21 -40 9 0 15 -10 15 -25 0 -20 5 -25 24 -25 20 0
25 -6 31 -40 4 -23 12 -40 20 -40 8 0 16 -17 20 -40 4 -23 12 -40 20 -40 7 0
16 -16 19 -35 4 -21 13 -35 21 -35 9 0 15 -10 15 -25 0 -18 5 -25 19 -25 15 0
21 -10 26 -40 4 -23 12 -40 20 -40 8 0 16 -17 20 -40 4 -25 12 -40 21 -40 8 0
14 -9 14 -20 0 -13 7 -20 20 -20 17 0 20 -7 20 -40 0 -33 3 -40 19 -40 15 0
21 -10 26 -40 4 -23 12 -40 20 -40 8 0 16 -17 20 -40 4 -25 12 -40 21 -40 8 0
14 -9 14 -20 0 -13 7 -20 20 -20 17 0 20 -7 20 -40 0 -33 3 -40 19 -40 16 0
21 -9 27 -45 4 -27 12 -45 19 -45 8 0 16 -17 20 -40 4 -25 12 -40 21 -40 8 0
14 -9 14 -20 0 -13 7 -20 20 -20 17 0 20 -7 20 -40 0 -33 3 -40 19 -40 15 0
21 -10 26 -40 4 -23 12 -40 20 -40 8 0 16 -17 20 -40 4 -25 12 -40 21 -40 8 0
14 -9 14 -20 0 -13 7 -20 20 -20 17 0 20 -7 20 -40 0 -33 3 -40 19 -40 15 0
21 -10 26 -40 4 -23 12 -40 20 -40 8 0 16 -17 20 -40 4 -25 12 -40 21 -40 8 0
14 -9 14 -20 0 -13 7 -20 20 -20 17 0 20 -7 20 -40 0 -33 3 -40 19 -40 15 0
21 -10 26 -40 4 -23 12 -40 20 -40 8 0 16 -17 20 -40 5 -30 11 -40 26 -40 12
0 19 -7 19 -20 0 -13 7 -20 20 -20 17 0 20 -7 20 -45 0 -38 3 -45 19 -45 15 0
21 -10 26 -40 4 -23 12 -40 20 -40 8 0 16 -17 20 -40 4 -25 12 -40 21 -40 8 0
14 -9 14 -20 0 -13 7 -20 20 -20 17 0 20 -7 20 -40 0 -33 3 -40 19 -40 15 0
21 -10 26 -40 4 -23 12 -40 20 -40 8 0 16 -17 20 -40 4 -25 12 -40 21 -40 8 0
14 -9 14 -20 0 -13 7 -20 20 -20 17 0 20 -7 20 -40 0 -33 3 -40 19 -40 15 0
21 -10 26 -40 4 -23 12 -40 20 -40 8 0 16 -17 20 -40 4 -25 12 -40 21 -40 8 0
14 -9 14 -20 0 -13 7 -20 20 -20 13 0 20 -7 20 -20 0 -19 7 -20 133 -20 72 0
142 3 155 6 l22 6 0 3464 c0 3072 -2 3464 -15 3464 -8 0 -15 9 -15 20 0 20 -7
20 -280 20 -273 0 -280 0 -280 -20 0 -11 -7 -20 -15 -20 -13 0 -15 -289 -15
-2542 0 -1399 -3 -2580 -7 -2625 -5 -72 -8 -83 -24 -83 -17 0 -19 9 -19 68 0
89 -10 142 -25 142 -8 0 -16 18 -20 40 -4 23 -12 40 -20 40 -7 0 -16 16 -19
35 -4 21 -13 35 -21 35 -9 0 -15 10 -15 25 0 18 -5 25 -19 25 -15 0 -21 10
-26 40 -5 30 -12 40 -25 40 -13 0 -20 10 -25 40 -4 25 -12 40 -21 40 -8 0 -14
9 -14 20 0 13 -7 20 -20 20 -17 0 -20 7 -20 40 0 33 -3 40 -19 40 -15 0 -21
10 -26 40 -4 23 -12 40 -20 40 -8 0 -16 17 -20 40 -4 25 -12 40 -21 40 -8 0
-14 9 -14 20 0 13 -7 20 -20 20 -17 0 -20 7 -20 40 0 33 -3 40 -19 40 -15 0
-21 10 -26 40 -4 23 -12 40 -20 40 -8 0 -16 17 -20 40 -4 25 -12 40 -21 40 -8
0 -14 9 -14 20 0 13 -7 20 -20 20 -17 0 -20 7 -20 45 0 38 -3 45 -19 45 -15 0
-21 10 -26 40 -4 23 -12 40 -20 40 -8 0 -16 17 -20 40 -4 25 -12 40 -21 40 -8
0 -14 9 -14 20 0 13 -7 20 -20 20 -17 0 -20 7 -20 40 0 33 -3 40 -19 40 -15 0
-21 10 -26 40 -4 23 -12 40 -20 40 -8 0 -16 17 -20 40 -4 25 -12 40 -21 40 -8
0 -14 9 -14 20 0 13 -7 20 -20 20 -17 0 -20 7 -20 40 0 33 -3 40 -19 40 -15 0
-21 10 -26 40 -4 23 -12 40 -20 40 -8 0 -16 17 -20 40 -4 25 -12 40 -21 40 -8
0 -14 9 -14 20 0 13 -7 20 -20 20 -17 0 -20 7 -20 40 0 33 -3 40 -19 40 -15 0
-21 10 -26 40 -4 23 -12 40 -20 40 -7 0 -15 18 -19 45 -5 29 -12 45 -22 45 -8
0 -14 9 -14 20 0 15 -7 20 -25 20 -22 0 -25 4 -25 40 0 33 -3 40 -19 40 -15 0
-21 10 -26 40 -4 23 -12 40 -20 40 -8 0 -16 17 -20 40 -4 25 -12 40 -21 40 -8
0 -14 9 -14 20 0 13 -7 20 -20 20 -17 0 -20 7 -20 40 0 33 -3 40 -19 40 -15 0
-21 10 -26 40 -4 23 -12 40 -20 40 -8 0 -16 17 -20 40 -4 25 -12 40 -21 40 -8
0 -14 9 -14 20 0 13 -7 20 -20 20 -17 0 -20 7 -20 40 0 33 -3 40 -19 40 -15 0
-21 10 -26 40 -4 23 -12 40 -20 40 -8 0 -16 17 -20 40 -4 25 -12 40 -21 40 -8
0 -14 9 -14 20 0 13 -7 20 -20 20 -17 0 -20 7 -20 45 0 38 -3 45 -19 45 -15 0
-21 10 -26 40 -4 23 -12 40 -20 40 -8 0 -16 17 -20 40 -4 25 -12 40 -21 40 -8
0 -14 9 -14 20 0 13 -7 20 -20 20 -17 0 -20 7 -20 40 0 33 -3 40 -19 40 -15 0
-21 10 -26 40 -4 23 -12 40 -20 40 -8 0 -16 17 -20 40 -4 25 -12 40 -21 40 -8
0 -14 9 -14 20 0 13 -7 20 -20 20 -17 0 -20 7 -20 40 0 33 -3 40 -19 40 -15 0
-21 10 -26 40 -4 23 -12 40 -20 40 -8 0 -16 17 -20 40 -4 25 -12 40 -21 40 -8
0 -14 9 -14 20 0 13 -7 20 -20 20 -17 0 -20 7 -20 40 0 33 -3 40 -19 40 -15 0
-21 10 -26 40 -5 30 -12 40 -25 40 -13 0 -20 10 -25 40 -4 25 -12 40 -21 40
-8 0 -14 10 -14 25 0 18 -5 25 -20 25 -17 0 -20 7 -20 40 0 33 -3 40 -19 40
-15 0 -21 10 -26 40 -4 23 -12 40 -20 40 -8 0 -16 17 -20 40 -4 25 -12 40 -21
40 -8 0 -14 9 -14 20 0 13 -7 20 -19 20 -15 0 -21 10 -26 40 -4 23 -12 40 -20
40 -8 0 -16 17 -20 40 -4 23 -12 40 -20 40 -8 0 -16 17 -20 40 -4 25 -12 40
-21 40 -8 0 -14 9 -14 20 0 13 -7 20 -19 20 -15 0 -21 10 -26 40 -4 23 -12 40
-20 40 -8 0 -16 17 -20 40 -4 23 -12 40 -20 40 -8 0 -16 17 -20 40 -4 25 -12
40 -21 40 -8 0 -14 9 -14 20 0 13 -7 20 -20 20 -17 0 -20 7 -20 40 0 33 -3 40
-20 40 -13 0 -20 7 -20 20 0 13 -7 20 -20 20 -13 0 -20 7 -20 20 0 19 -7 20
-140 20 l-140 0 0 -3490z"/>
<path d="M7440 13270 l0 -1410 17498 0 c9623 0 17507 3 17520 6 l22 6 0 1404
0 1404 -17520 0 -17520 0 0 -1410z m15750 105 l0 -625 300 0 c293 0 300 0 300
-20 0 -13 7 -20 20 -20 18 0 20 -7 20 -65 0 -58 -2 -65 -20 -65 -13 0 -20 -7
-20 -20 0 -20 -7 -20 -380 -20 -373 0 -380 0 -380 20 0 15 -7 20 -25 20 l-25
0 0 710 0 710 105 0 105 0 0 -625z m1690 545 l0 -80 -200 0 -200 0 0 -630 c0
-623 0 -630 -20 -630 -13 0 -20 -7 -20 -20 0 -18 -7 -20 -80 -20 l-80 0 0 650
0 650 -225 0 -225 0 0 80 0 80 525 0 525 0 0 -80z m970 60 c0 -18 7 -20 60
-20 53 0 60 -2 60 -20 0 -18 7 -20 60 -20 53 0 60 -2 60 -20 0 -15 7 -20 25
-20 18 0 25 -5 25 -20 0 -13 7 -20 20 -20 13 0 20 -7 20 -20 0 -13 7 -20 20
-20 13 0 20 -7 20 -20 0 -13 7 -20 20 -20 17 0 20 -7 20 -45 0 -38 3 -45 20
-45 17 0 20 -7 20 -40 0 -33 3 -40 20 -40 19 0 20 -7 20 -120 0 -113 1 -120
20 -120 18 0 20 -7 20 -60 0 -53 -2 -60 -20 -60 -19 0 -20 -7 -20 -120 0 -113
-1 -120 -20 -120 -17 0 -20 -7 -20 -40 0 -33 -3 -40 -20 -40 -17 0 -20 -7 -20
-40 0 -33 -3 -40 -20 -40 -17 0 -20 -7 -20 -40 0 -33 -3 -40 -20 -40 -13 0
-20 -7 -20 -20 0 -17 -7 -20 -45 -20 -41 0 -45 -2 -45 -25 0 -18 -5 -25 -20
-25 -13 0 -20 -7 -20 -20 0 -17 -7 -20 -40 -20 -33 0 -40 -3 -40 -20 0 -18 -7
-20 -80 -20 -73 0 -80 -2 -80 -20 0 -19 -7 -20 -240 -20 l-240 0 0 730 0 730
260 0 c253 0 260 -1 260 -20z"/>
<path d="M25530 13275 l0 -565 80 0 c73 0 80 2 80 20 0 19 7 20 100 20 93 0
100 1 100 20 0 17 7 20 40 20 33 0 40 3 40 20 0 13 7 20 20 20 13 0 20 7 20
20 0 13 7 20 20 20 13 0 20 7 20 20 0 13 7 20 20 20 17 0 20 7 20 40 0 36 3
40 25 40 l25 0 0 100 c0 93 1 100 20 100 18 0 20 7 20 80 0 73 -2 80 -20 80
-19 0 -20 7 -20 100 l0 100 -25 0 c-22 0 -25 4 -25 40 0 33 -3 40 -20 40 -17
0 -20 7 -20 45 0 38 -3 45 -20 45 -13 0 -20 7 -20 20 0 17 -7 20 -40 20 -33 0
-40 3 -40 20 0 18 -7 20 -60 20 -53 0 -60 2 -60 20 0 19 -7 20 -140 20 l-140
0 0 -565z"/>
</g>
</svg>
