<svg width="228" height="260" viewBox="0 0 228 260" fill="none" xmlns="http://www.w3.org/2000/svg">
<path d="M92.778 209.007L82.4941 238H73.6557L63.3717 209.007H70.8885L78.0749 230.896L85.3025 209.007H92.778ZM121.667 238H114.604L102.792 220.117V238H95.7298V209.007H102.792L114.604 226.973V209.007H121.667V238ZM151.897 209.007V238H144.835V226.064H133.849V238H126.786V209.007H133.849V220.364H144.835V209.007H151.897Z" fill="#FDBF32"/>
<path d="M54.4413 250.293C54.4413 249.365 54.6419 248.541 55.0431 247.819C55.4443 247.088 56.0015 246.521 56.7147 246.12C57.4369 245.71 58.2526 245.505 59.162 245.505C60.2764 245.505 61.2304 245.799 62.0239 246.388C62.8173 246.976 63.3478 247.779 63.6153 248.795H61.1011C60.9139 248.403 60.6464 248.104 60.2987 247.899C59.9599 247.694 59.5721 247.591 59.1353 247.591C58.431 247.591 57.8604 247.836 57.4235 248.327C56.9867 248.817 56.7682 249.472 56.7682 250.293C56.7682 251.113 56.9867 251.768 57.4235 252.259C57.8604 252.749 58.431 252.994 59.1353 252.994C59.5721 252.994 59.9599 252.892 60.2987 252.686C60.6464 252.481 60.9139 252.183 61.1011 251.79H63.6153C63.3478 252.807 62.8173 253.609 62.0239 254.198C61.2304 254.777 60.2764 255.067 59.162 255.067C58.2526 255.067 57.4369 254.866 56.7147 254.465C56.0015 254.055 55.4443 253.489 55.0431 252.767C54.6419 252.045 54.4413 251.22 54.4413 250.293ZM68.4124 255.107C67.6814 255.107 67.0216 254.951 66.4332 254.639C65.8537 254.327 65.3946 253.881 65.0558 253.302C64.7259 252.722 64.561 252.045 64.561 251.269C64.561 250.502 64.7304 249.829 65.0692 249.25C65.408 248.661 65.8716 248.211 66.46 247.899C67.0484 247.587 67.7081 247.431 68.4392 247.431C69.1703 247.431 69.83 247.587 70.4184 247.899C71.0068 248.211 71.4704 248.661 71.8092 249.25C72.148 249.829 72.3174 250.502 72.3174 251.269C72.3174 252.036 72.1435 252.713 71.7958 253.302C71.4571 253.881 70.989 254.327 70.3917 254.639C69.8032 254.951 69.1435 255.107 68.4124 255.107ZM68.4124 253.128C68.8493 253.128 69.2193 252.967 69.5224 252.646C69.8344 252.325 69.9905 251.866 69.9905 251.269C69.9905 250.672 69.8389 250.212 69.5358 249.891C69.2416 249.571 68.876 249.41 68.4392 249.41C67.9934 249.41 67.6234 249.571 67.3292 249.891C67.035 250.204 66.8879 250.663 66.8879 251.269C66.8879 251.866 67.0306 252.325 67.3158 252.646C67.6101 252.967 67.9756 253.128 68.4124 253.128ZM78.0774 247.458C78.9511 247.458 79.6465 247.743 80.1636 248.313C80.6896 248.875 80.9526 249.651 80.9526 250.64V255H78.6792V250.948C78.6792 250.449 78.5499 250.061 78.2914 249.784C78.0329 249.508 77.6852 249.37 77.2483 249.37C76.8114 249.37 76.4637 249.508 76.2052 249.784C75.9467 250.061 75.8174 250.449 75.8174 250.948V255H73.5306V247.538H75.8174V248.527C76.0492 248.198 76.3612 247.939 76.7535 247.752C77.1458 247.556 77.5871 247.458 78.0774 247.458ZM85.5774 255.107C84.9266 255.107 84.3471 254.996 83.8389 254.773C83.3308 254.55 82.9296 254.247 82.6354 253.863C82.3412 253.471 82.1762 253.034 82.1406 252.553H84.4006C84.4274 252.811 84.5477 253.021 84.7617 253.181C84.9757 253.342 85.2387 253.422 85.5507 253.422C85.836 253.422 86.0544 253.368 86.206 253.261C86.3665 253.146 86.4467 252.998 86.4467 252.82C86.4467 252.606 86.3353 252.45 86.1124 252.352C85.8895 252.245 85.5284 252.129 85.0291 252.004C84.4942 251.88 84.0485 251.75 83.6918 251.617C83.3352 251.474 83.0276 251.256 82.7691 250.961C82.5105 250.658 82.3813 250.253 82.3813 249.744C82.3813 249.316 82.4972 248.929 82.729 248.581C82.9697 248.224 83.3174 247.943 83.7721 247.738C84.2357 247.533 84.784 247.431 85.417 247.431C86.3531 247.431 87.0886 247.663 87.6235 248.126C88.1674 248.59 88.4794 249.205 88.5596 249.972H86.4467C86.411 249.713 86.2951 249.508 86.099 249.357C85.9118 249.205 85.6621 249.129 85.3501 249.129C85.0826 249.129 84.8776 249.183 84.7349 249.29C84.5923 249.388 84.521 249.526 84.521 249.704C84.521 249.918 84.6324 250.079 84.8553 250.186C85.0871 250.293 85.4437 250.4 85.9251 250.507C86.4779 250.649 86.9281 250.792 87.2758 250.935C87.6235 251.068 87.9267 251.291 88.1852 251.603C88.4527 251.906 88.5908 252.316 88.5998 252.834C88.5998 253.27 88.4749 253.663 88.2253 254.01C87.9846 254.349 87.6324 254.617 87.1688 254.813C86.7142 255.009 86.1837 255.107 85.5774 255.107ZM94.1579 253.061V255H92.9944C92.1653 255 91.5189 254.799 91.0553 254.398C90.5917 253.988 90.3599 253.324 90.3599 252.406V249.437H89.4505V247.538H90.3599V245.719H92.6467V247.538H94.1445V249.437H92.6467V252.432C92.6467 252.655 92.7002 252.816 92.8072 252.914C92.9142 253.012 93.0925 253.061 93.3421 253.061H94.1579ZM97.7184 248.782C97.9859 248.371 98.3202 248.05 98.7214 247.819C99.1226 247.578 99.5684 247.458 100.059 247.458V249.878H99.4302C98.8596 249.878 98.4317 250.003 98.1464 250.253C97.8611 250.493 97.7184 250.921 97.7184 251.536V255H95.4316V247.538H97.7184V248.782ZM108.52 247.538V255H106.234V253.984C106.002 254.314 105.685 254.581 105.284 254.786C104.892 254.982 104.455 255.08 103.973 255.08C103.403 255.08 102.899 254.955 102.462 254.706C102.025 254.447 101.687 254.077 101.446 253.596C101.205 253.114 101.085 252.548 101.085 251.897V247.538H103.358V251.59C103.358 252.089 103.488 252.477 103.746 252.753C104.005 253.03 104.352 253.168 104.789 253.168C105.235 253.168 105.587 253.03 105.846 252.753C106.104 252.477 106.234 252.089 106.234 251.59V247.538H108.52ZM109.708 251.269C109.708 250.493 109.864 249.816 110.176 249.236C110.497 248.657 110.939 248.211 111.5 247.899C112.071 247.587 112.722 247.431 113.453 247.431C114.389 247.431 115.169 247.676 115.793 248.166C116.426 248.657 116.841 249.348 117.037 250.239H114.603C114.398 249.669 114.001 249.383 113.413 249.383C112.994 249.383 112.659 249.548 112.41 249.878C112.16 250.199 112.035 250.663 112.035 251.269C112.035 251.875 112.16 252.343 112.41 252.673C112.659 252.994 112.994 253.155 113.413 253.155C114.001 253.155 114.398 252.869 114.603 252.299H117.037C116.841 253.172 116.426 253.859 115.793 254.358C115.16 254.857 114.38 255.107 113.453 255.107C112.722 255.107 112.071 254.951 111.5 254.639C110.939 254.327 110.497 253.881 110.176 253.302C109.864 252.722 109.708 252.045 109.708 251.269ZM122.419 253.061V255H121.256C120.426 255 119.78 254.799 119.316 254.398C118.853 253.988 118.621 253.324 118.621 252.406V249.437H117.712V247.538H118.621V245.719H120.908V247.538H122.406V249.437H120.908V252.432C120.908 252.655 120.961 252.816 121.068 252.914C121.175 253.012 121.354 253.061 121.603 253.061H122.419ZM124.843 246.762C124.442 246.762 124.112 246.646 123.853 246.414C123.604 246.174 123.479 245.88 123.479 245.532C123.479 245.175 123.604 244.881 123.853 244.649C124.112 244.409 124.442 244.288 124.843 244.288C125.235 244.288 125.556 244.409 125.806 244.649C126.064 244.881 126.194 245.175 126.194 245.532C126.194 245.88 126.064 246.174 125.806 246.414C125.556 246.646 125.235 246.762 124.843 246.762ZM125.98 247.538V255H123.693V247.538H125.98ZM131.034 255.107C130.302 255.107 129.643 254.951 129.054 254.639C128.475 254.327 128.016 253.881 127.677 253.302C127.347 252.722 127.182 252.045 127.182 251.269C127.182 250.502 127.351 249.829 127.69 249.25C128.029 248.661 128.493 248.211 129.081 247.899C129.669 247.587 130.329 247.431 131.06 247.431C131.791 247.431 132.451 247.587 133.04 247.899C133.628 248.211 134.092 248.661 134.43 249.25C134.769 249.829 134.939 250.502 134.939 251.269C134.939 252.036 134.765 252.713 134.417 253.302C134.078 253.881 133.61 254.327 133.013 254.639C132.424 254.951 131.765 255.107 131.034 255.107ZM131.034 253.128C131.47 253.128 131.84 252.967 132.144 252.646C132.456 252.325 132.612 251.866 132.612 251.269C132.612 250.672 132.46 250.212 132.157 249.891C131.863 249.571 131.497 249.41 131.06 249.41C130.615 249.41 130.245 249.571 129.95 249.891C129.656 250.204 129.509 250.663 129.509 251.269C129.509 251.866 129.652 252.325 129.937 252.646C130.231 252.967 130.597 253.128 131.034 253.128ZM140.699 247.458C141.572 247.458 142.268 247.743 142.785 248.313C143.311 248.875 143.574 249.651 143.574 250.64V255H141.3V250.948C141.3 250.449 141.171 250.061 140.913 249.784C140.654 249.508 140.306 249.37 139.869 249.37C139.433 249.37 139.085 249.508 138.826 249.784C138.568 250.061 138.438 250.449 138.438 250.948V255H136.152V247.538H138.438V248.527C138.67 248.198 138.982 247.939 139.375 247.752C139.767 247.556 140.208 247.458 140.699 247.458ZM149.695 253.77H152.838V255H148.171V245.706H149.695V253.77ZM160.117 245.706V246.949H157.643V255H156.119V246.949H153.631V245.706H160.117ZM164.697 245.706C165.687 245.706 166.551 245.897 167.291 246.281C168.04 246.655 168.615 247.199 169.016 247.912C169.427 248.617 169.632 249.441 169.632 250.386C169.632 251.331 169.427 252.152 169.016 252.847C168.615 253.542 168.04 254.077 167.291 254.452C166.551 254.817 165.687 255 164.697 255H161.661V245.706H164.697ZM164.697 253.756C165.785 253.756 166.618 253.462 167.198 252.874C167.777 252.285 168.067 251.456 168.067 250.386C168.067 249.308 167.777 248.465 167.198 247.859C166.618 247.253 165.785 246.949 164.697 246.949H163.186V253.756H164.697Z" fill="#677C89"/>
<path d="M10.8681 250.16C10.8681 251.143 10.0711 251.94 9.0881 251.94C8.1051 251.94 7.30811 251.143 7.30811 250.16C7.30811 249.177 8.1051 248.38 9.0881 248.38C10.0711 248.38 10.8681 249.176 10.8681 250.16Z" fill="#677C89"/>
<path d="M213.955 250.16C213.955 251.143 213.158 251.94 212.175 251.94C211.192 251.94 210.395 251.143 210.395 250.16C210.395 249.177 211.192 248.38 212.175 248.38C213.158 248.379 213.955 249.176 213.955 250.16Z" fill="#677C89"/>
<path d="M163.938 163.938C194.119 133.758 194.119 84.8261 163.938 54.6459C133.758 24.4657 84.8263 24.4657 54.6461 54.6459C24.4659 84.8261 24.4659 133.758 54.6461 163.938C84.8263 194.118 133.758 194.118 163.938 163.938Z" fill="#869CAD" stroke="black" stroke-width="1.1172" stroke-miterlimit="10" stroke-linecap="round" stroke-linejoin="round"/>
<path d="M132.573 108.226L167.967 125.92C167.967 125.92 169.169 155.895 157.68 165.279L131.731 155.053C131.731 155.053 111.973 128.561 132.573 108.226Z" fill="#BDCDDB" stroke="black" stroke-width="1.1172" stroke-miterlimit="10" stroke-linecap="round" stroke-linejoin="round"/>
<mask id="mask0_157_1890" style="mask-type:luminance" maskUnits="userSpaceOnUse" x="32" y="32" width="155" height="155">
<path d="M163.938 163.938C194.119 133.758 194.119 84.8261 163.938 54.6459C133.758 24.4657 84.8263 24.4657 54.6461 54.6459C24.4659 84.8261 24.4659 133.758 54.6461 163.938C84.8263 194.118 133.758 194.118 163.938 163.938Z" fill="white"/>
</mask>
<g mask="url(#mask0_157_1890)">
<path d="M64.751 115.123C64.751 115.123 94.58 93.6968 126.395 107.277C130.607 109.075 138.851 114.194 138.851 114.194L143.424 190.635C143.424 190.635 88.007 204.505 73.437 195.819C73.437 195.819 80.022 132.215 64.751 115.123Z" fill="#BDCDDB" stroke="black" stroke-width="1.1172" stroke-miterlimit="10" stroke-linecap="round" stroke-linejoin="round"/>
</g>
<mask id="mask1_157_1890" style="mask-type:luminance" maskUnits="userSpaceOnUse" x="32" y="32" width="155" height="155">
<path d="M163.938 163.938C194.119 133.758 194.119 84.8261 163.938 54.6459C133.758 24.4657 84.8263 24.4657 54.6461 54.6459C24.4659 84.8261 24.4659 133.758 54.6461 163.938C84.8263 194.118 133.758 194.118 163.938 163.938Z" fill="white"/>
</mask>
<g mask="url(#mask1_157_1890)">
<path d="M77.4148 134.794L72.7468 204.563L142.527 205.114L142.987 134.795C142.987 134.795 122.302 149.702 77.4148 134.794Z" fill="#FFAD33" stroke="black" stroke-width="1.1172" stroke-miterlimit="10" stroke-linecap="round" stroke-linejoin="round"/>
</g>
<mask id="mask2_157_1890" style="mask-type:luminance" maskUnits="userSpaceOnUse" x="32" y="32" width="155" height="155">
<path d="M163.938 163.938C194.119 133.758 194.119 84.8261 163.938 54.6459C133.758 24.4657 84.8263 24.4657 54.6461 54.6459C24.4659 84.8261 24.4659 133.758 54.6461 163.938C84.8263 194.118 133.758 194.118 163.938 163.938Z" fill="white"/>
</mask>
<g mask="url(#mask2_157_1890)">
<path d="M113.926 165.279C113.926 165.279 143.767 174.315 151.543 186.924L121.702 196.801L108.673 183.772L113.926 165.279Z" fill="#FACB61" stroke="black" stroke-width="1.1172" stroke-miterlimit="10" stroke-linecap="round" stroke-linejoin="round"/>
</g>
<path d="M80.0919 166.75C80.0919 166.75 44.483 169.904 40.281 178.834C40.281 178.834 37.2929 161.702 43.3159 148.046C47.5299 138.493 52.773 113.372 63.49 111.48C63.49 111.48 74.266 106.857 76.729 126.611L80.0919 166.75Z" fill="#BDCDDB" stroke="black" stroke-width="1.1172" stroke-miterlimit="10" stroke-linecap="round" stroke-linejoin="round"/>
<path d="M164.889 124.379C164.889 124.379 155.617 126.914 151.531 140.035C149.464 146.672 143.26 167.03 162.26 165.277L167.967 125.918L164.889 124.379Z" fill="#E5E5E5" stroke="black" stroke-width="1.1172" stroke-miterlimit="10" stroke-linecap="round" stroke-linejoin="round"/>
<path d="M158.525 164.05C159.519 164.733 160.765 165.166 162.26 165.278C167.626 165.68 175.339 166.659 178.433 166.707C183.419 166.785 192.101 166.219 192.101 152.182C192.101 148.05 192.741 104.937 192.741 104.937L172.932 101.966C172.932 101.966 165.364 122.704 163.337 128.93C160.981 136.167 155.783 155.749 155.783 155.749C155.205 159.311 156.134 162.406 158.525 164.05Z" fill="#F7ADAD" stroke="black" stroke-width="1.1172" stroke-miterlimit="10" stroke-linecap="round" stroke-linejoin="round"/>
<path d="M191.27 110.496C191.27 110.496 199.141 100.388 202.516 97.5175C206.085 94.4815 211.271 91.6955 219.701 89.3665C221.254 88.9375 223.599 83.6155 218.029 83.1415C218.029 83.1415 212.078 82.7915 208.878 83.8775C208.878 83.8775 219.226 81.5185 224.248 80.0965C225.935 79.6185 227.541 73.0285 221.581 74.0965C218.345 74.6765 209.004 77.9335 209.004 77.9335L219.605 73.7095C222.099 72.7155 222.984 69.4335 221.085 67.5345C220.991 67.4405 220.892 67.3514 220.787 67.2684C219.925 66.5874 218.712 66.5605 217.731 67.0545L206.278 72.8115L213.863 64.8445C213.863 64.8445 215.522 57.1415 202.249 64.8445L180.087 77.5775C180.087 77.5775 174.799 79.4695 174.872 91.2065C174.894 94.7695 172.167 105.201 172.167 105.201L191.27 110.496Z" fill="#FACB61" stroke="black" stroke-width="1.1172" stroke-miterlimit="10" stroke-linecap="round" stroke-linejoin="round"/>
<path d="M132.811 161.776H139.07C141.326 161.776 143.177 160.002 143.26 157.748C143.702 145.846 144.03 111.104 133.4 101.967C133.4 101.967 127.641 99.1307 122.912 102.979C121.571 104.07 121.219 105.971 121.983 107.522C124.812 113.268 131.488 130.153 128.649 157.119C128.388 159.602 130.314 161.776 132.811 161.776Z" fill="#020E27" stroke="black" stroke-width="1.1172" stroke-miterlimit="10" stroke-linecap="round" stroke-linejoin="round"/>
<path d="M139.984 152.6C139.984 154.341 138.573 155.752 136.832 155.752C135.091 155.752 133.68 154.341 133.68 152.6C133.68 150.859 135.091 149.448 136.832 149.448C138.573 149.448 139.984 150.859 139.984 152.6Z" fill="white" stroke="black" stroke-width="1.1172" stroke-miterlimit="10" stroke-linecap="round" stroke-linejoin="round"/>
<path d="M82.1169 163.706L88.3659 163.365C90.6189 163.242 92.3699 161.37 92.3309 159.114C92.1229 147.206 90.5579 112.497 79.4459 103.953C79.4459 103.953 73.5409 101.435 69.0289 105.535C67.7489 106.698 67.5019 108.615 68.3489 110.122C71.4869 115.705 79.0729 132.201 77.7079 159.282C77.5819 161.777 79.6239 163.842 82.1169 163.706Z" fill="#020E27" stroke="#020E27" stroke-width="1.1172" stroke-miterlimit="10" stroke-linecap="round" stroke-linejoin="round"/>
<path d="M88.78 154.152C88.875 155.89 87.543 157.376 85.804 157.471C84.066 157.566 82.58 156.234 82.485 154.495C82.39 152.757 83.723 151.271 85.461 151.176C87.199 151.082 88.685 152.414 88.78 154.152Z" fill="white" stroke="black" stroke-width="1.1172" stroke-miterlimit="10" stroke-linecap="round" stroke-linejoin="round"/>
<path d="M183.908 32.4307H174.587V50.5317H183.908V32.4307Z" fill="#E5AD3E" stroke="black" stroke-width="1.1172" stroke-miterlimit="10" stroke-linecap="round" stroke-linejoin="round"/>
<path d="M166.222 57.3815H226.006C226.576 57.3815 226.883 56.7125 226.511 56.2805L199.27 24.6915C198.876 24.2355 198.179 24.2075 197.75 24.6305L165.755 56.2415C165.33 56.6605 165.626 57.3815 166.222 57.3815Z" fill="#BDCDDB" stroke="black" stroke-width="1.1172" stroke-miterlimit="10" stroke-linecap="round" stroke-linejoin="round"/>
<path d="M215.784 55.0456L197.465 34.3496L177.497 55.0456V83.8766H215.784V55.0456Z" fill="#FFAD33" stroke="black" stroke-width="1.1172" stroke-miterlimit="10" stroke-linecap="round" stroke-linejoin="round"/>
<path d="M201.934 64.7363H192.995V83.8763H201.934V64.7363Z" fill="#BDCDDB" stroke="black" stroke-width="1.1172" stroke-miterlimit="10" stroke-linecap="round" stroke-linejoin="round"/>
<path d="M200.612 47.3436C200.707 49.0816 199.375 50.5686 197.636 50.6626C195.898 50.7576 194.412 49.4256 194.317 47.6866C194.222 45.9486 195.555 44.4626 197.293 44.3676C199.031 44.2726 200.518 45.6056 200.612 47.3436Z" fill="white" stroke="black" stroke-width="1.1172" stroke-miterlimit="10" stroke-linecap="round" stroke-linejoin="round"/>
<path d="M86.2068 88.6357L90.0698 116.216C90.0698 116.216 108.544 126.025 123.051 113.731L116.226 87.7407L86.2068 88.6357Z" fill="#F7ADAD" stroke="black" stroke-width="1.1172" stroke-miterlimit="10" stroke-linecap="round" stroke-linejoin="round"/>
<path d="M125.884 75.2925L122.558 76.3745L115.151 53.6135L118.477 52.5315C122.632 51.1795 127.095 53.4516 128.447 57.6056L130.958 65.3225C132.309 69.4765 130.038 73.9405 125.884 75.2925Z" fill="#F7ADAD" stroke="black" stroke-width="1.1172" stroke-miterlimit="10" stroke-linecap="round" stroke-linejoin="round"/>
<path d="M120.412 97.7616L99.2028 102.998C94.2558 104.608 88.9408 101.903 87.3308 96.9556L72.2208 52.4176C70.3108 46.5506 73.5198 40.2456 79.3878 38.3366L103.86 29.4326C109.727 27.5236 116.032 30.7316 117.941 36.5996L129.525 79.8586C131.952 87.3186 127.872 95.3346 120.412 97.7616Z" fill="#F7ADAD" stroke="black" stroke-width="1.1172" stroke-miterlimit="10" stroke-linecap="round" stroke-linejoin="round"/>
<path d="M86.4348 79.4498C87.2058 78.7238 87.5138 77.6318 87.2338 76.6098L82.5198 59.3848L76.3008 61.4968L81.7528 78.2508C82.4028 80.2458 84.9068 80.8868 86.4348 79.4498Z" fill="#5F4E6D" stroke="black" stroke-width="1.1172" stroke-miterlimit="10" stroke-linecap="round" stroke-linejoin="round"/>
<path d="M72.2148 68.4448C72.2148 68.4448 86.1078 52.1908 121.195 36.6728C121.195 36.6728 109.776 18.9518 86.0278 30.4878C76.9448 34.8998 63.9688 43.5468 72.2148 68.4448Z" fill="#020E27" stroke="black" stroke-width="1.1172" stroke-miterlimit="10" stroke-linecap="round" stroke-linejoin="round"/>
<path d="M84.3838 86.4187L82.9998 86.8687C79.3048 88.0707 75.3348 86.0507 74.1328 82.3557L71.0798 72.9747C69.8778 69.2797 71.8978 65.3097 75.5928 64.1067L76.9758 63.6567L84.3838 86.4187Z" fill="#F7ADAD" stroke="black" stroke-width="1.1172" stroke-miterlimit="10" stroke-linecap="round" stroke-linejoin="round"/>
<path d="M115.097 48.0389C115.097 48.0389 130.746 44.3039 136.221 42.4469C138.251 41.7579 142.989 41.3979 141.047 34.3659C141.047 34.3659 138.834 27.8799 130.738 30.2169L115.097 48.0389Z" fill="#FFAD33" stroke="black" stroke-width="1.1172" stroke-miterlimit="10" stroke-linecap="round" stroke-linejoin="round"/>
<path d="M82.5208 59.3846C82.5208 59.3846 96.5258 57.6286 109.44 53.9326C111.579 53.3206 113.513 52.1096 115.133 50.5126L131.183 30.0796L117.908 33.6426C117.274 33.8116 116.659 34.0406 116.066 34.3276C111.137 36.7076 88.9608 52.0406 82.5208 59.3846Z" fill="#020E27" stroke="black" stroke-width="1.1172" stroke-miterlimit="10" stroke-linecap="round" stroke-linejoin="round"/>
<path d="M172.123 114.472L192.068 116.276C195.745 116.609 199.17 114.289 199.829 111.019L199.857 110.88C200.505 107.667 198.254 104.65 194.713 103.987L174.923 100.277C170.778 99.4997 166.701 102.244 166.361 106.04L166.177 108.085C165.885 111.342 168.492 114.143 172.123 114.472Z" fill="#E5AD3E" stroke="black" stroke-width="1.1172" stroke-miterlimit="10" stroke-linecap="round" stroke-linejoin="round"/>
<path d="M81.8188 168.481C81.8188 168.481 77.2068 150.116 50.5988 157.477C43.3288 159.488 30.9628 168.298 43.0588 186.692L81.8188 168.481Z" fill="#E5E5E5" stroke="black" stroke-width="1.1172" stroke-miterlimit="10" stroke-linecap="round" stroke-linejoin="round"/>
<path d="M52.1429 165.285C47.0659 165.117 42.5149 168.531 41.3929 173.485C40.4929 177.458 40.0508 181.299 43.0598 186.692C43.0598 186.692 44.3989 196.908 70.5479 191.077L106.494 183.875L109.735 165.995L52.1429 165.285Z" fill="#F7ADAD" stroke="black" stroke-width="1.1172" stroke-miterlimit="10" stroke-linecap="round" stroke-linejoin="round"/>
<path d="M103.745 163.926L98.9178 181.119C98.0278 184.289 99.7978 187.596 102.929 188.614L103.062 188.657C106.139 189.657 109.463 188.096 110.66 185.091L117.347 168.291C118.748 164.773 116.658 160.838 112.959 160.028L110.966 159.591C107.79 158.896 104.624 160.797 103.745 163.926Z" fill="#E5AD3E" stroke="black" stroke-width="1.1172" stroke-miterlimit="10" stroke-linecap="round" stroke-linejoin="round"/>
</svg>
